<svg xmlns="http://www.w3.org/2000/svg" viewBox="0 0 7424.84 6991.32"><defs><style>.cls-1,.cls-10,.cls-11,.cls-12,.cls-13,.cls-14,.cls-15,.cls-16,.cls-17,.cls-18,.cls-19,.cls-2,.cls-20,.cls-21,.cls-22,.cls-23,.cls-24,.cls-25,.cls-26,.cls-27,.cls-28,.cls-3,.cls-31,.cls-32,.cls-33,.cls-34,.cls-36,.cls-37,.cls-38,.cls-4,.cls-40,.cls-41,.cls-43,.cls-45,.cls-46,.cls-47,.cls-48,.cls-49,.cls-5,.cls-50,.cls-55,.cls-6,.cls-61,.cls-62,.cls-7,.cls-8,.cls-9{fill:none;}.cls-1,.cls-10,.cls-11,.cls-12,.cls-13,.cls-14,.cls-15,.cls-16,.cls-17,.cls-18,.cls-19,.cls-2,.cls-20,.cls-21,.cls-22,.cls-23,.cls-24,.cls-25,.cls-26,.cls-27,.cls-28,.cls-29,.cls-3,.cls-30,.cls-31,.cls-32,.cls-33,.cls-34,.cls-36,.cls-37,.cls-38,.cls-39,.cls-4,.cls-40,.cls-41,.cls-42,.cls-43,.cls-44,.cls-45,.cls-46,.cls-47,.cls-48,.cls-49,.cls-5,.cls-50,.cls-51,.cls-52,.cls-53,.cls-54,.cls-55,.cls-56,.cls-57,.cls-58,.cls-59,.cls-6,.cls-60,.cls-61,.cls-62,.cls-7,.cls-8,.cls-9{stroke:#000;}.cls-1,.cls-10,.cls-11,.cls-12,.cls-13,.cls-14,.cls-15,.cls-16,.cls-17,.cls-18,.cls-19,.cls-2,.cls-20,.cls-21,.cls-22,.cls-23,.cls-24,.cls-25,.cls-26,.cls-27,.cls-28,.cls-29,.cls-3,.cls-30,.cls-31,.cls-32,.cls-33,.cls-34,.cls-36,.cls-37,.cls-38,.cls-39,.cls-4,.cls-40,.cls-41,.cls-42,.cls-44,.cls-45,.cls-46,.cls-47,.cls-48,.cls-49,.cls-5,.cls-50,.cls-51,.cls-52,.cls-53,.cls-54,.cls-55,.cls-56,.cls-57,.cls-58,.cls-59,.cls-6,.cls-60,.cls-61,.cls-62,.cls-7,.cls-8,.cls-9{stroke-linecap:round;stroke-linejoin:round;}.cls-1{stroke-width:30px;}.cls-2,.cls-42{stroke-width:20px;}.cls-3{stroke-width:19.35px;}.cls-4{stroke-width:20.67px;}.cls-5{stroke-width:20.22px;}.cls-6{stroke-width:20.06px;}.cls-7{stroke-width:20.3px;}.cls-39,.cls-8{stroke-width:16px;}.cls-29,.cls-9{stroke-width:14px;}.cls-10{stroke-width:20.19px;}.cls-11{stroke-width:19.47px;}.cls-12{stroke-width:21.63px;}.cls-13{stroke-width:19.59px;}.cls-14{stroke-width:19.6px;}.cls-15{stroke-width:19.48px;}.cls-16{stroke-width:19.2px;}.cls-17{stroke-width:19.53px;}.cls-18{stroke-width:20.03px;}.cls-19{stroke-width:10px;}.cls-20{stroke-width:60px;}.cls-21{stroke-width:20.75px;}.cls-22{stroke-width:19.93px;}.cls-23{stroke-width:21.12px;}.cls-24{stroke-width:22.22px;}.cls-25{stroke-width:20.11px;}.cls-26{stroke-width:20.46px;}.cls-27{stroke-width:21.84px;}.cls-28{stroke-width:20.77px;}.cls-29,.cls-30,.cls-35,.cls-39,.cls-42,.cls-44,.cls-51,.cls-52,.cls-53,.cls-54{fill:#fff;}.cls-30,.cls-31{stroke-width:13.87px;}.cls-32{stroke-width:20.12px;}.cls-33{stroke-width:20.1px;}.cls-34{stroke-width:20.4px;}.cls-36{stroke-width:9.21px;}.cls-37{stroke-width:12px;}.cls-38{stroke-width:18.6px;}.cls-40{stroke-width:25px;}.cls-41{stroke-width:25.24px;}.cls-43{stroke-miterlimit:10;stroke-width:3px;}.cls-44{stroke-width:5px;}.cls-45{stroke-width:35px;}.cls-46{stroke-width:18px;}.cls-47{stroke-width:6px;}.cls-48{stroke-width:15px;}.cls-49{stroke-width:14.79px;}.cls-50{stroke-width:14.27px;}.cls-51{stroke-width:28.11px;}.cls-52{stroke-width:17.5px;}.cls-53,.cls-55{stroke-width:18.32px;}.cls-54{stroke-width:18.42px;}.cls-56{stroke-width:9.37px;}.cls-57{stroke-width:7.74px;}.cls-58{stroke-width:5.86px;}.cls-59{stroke-width:5.74px;}.cls-60{stroke-width:7.38px;}.cls-61{stroke-width:10.5px;}.cls-62{stroke-width:11.22px;}</style></defs><g id="Layer_2" data-name="Layer 2"><g id="Lamp"><path class="cls-1" d="M15,4900.5H190"/><line class="cls-1" x1="3182.93" y1="4922.45" x2="4019.95" y2="4922.45"/><line class="cls-1" x1="4092.24" y1="4924.72" x2="4973.68" y2="4933.53"/><path class="cls-1" d="M6472.9,4933.53h902.5"/><path class="cls-2" d="M5314.26,2475.53c15.59,62.31,84.66,92.4,145.27,113.65l244.18,85.6c120.89,42.38,252.3,93.37,313.75,205.78,26.78,49,37.19,105,47.22,159.91q55.6,304.46,111.23,608.91c71.6,392,143.42,786,151.71,1184.44,2.45,117.94-2.38,242.2-63.22,343.26-49.87,82.83-136.26,142.74-231.31,160.43"/><path class="cls-2" d="M5795.58,4764.52a4371.19,4371.19,0,0,1-304.52-1182.59"/><path class="cls-2" d="M5487.27,3484.66a1283.8,1283.8,0,0,1,4.56-252.75c11.68-99.59,36.28-200.48,94.11-282.39s154.09-141.9,254.12-135"/><path class="cls-2" d="M5747.6,5315c-195-37.71-377.14-126.91-542.18-237.42S4890.89,4835.26,4742,4703.85c-61.5-1.74-111.18-2.8-172.38-9.1-2-.21-4.48-.93-4.61-2.91s4.11-.79,2.44.28"/><path class="cls-2" d="M4568.55,4686.86a1828.05,1828.05,0,0,1,394.27-425.67c44.33,32.9,76,73.34,102.35,121.86"/><path class="cls-3" d="M5056.47,4378.69A2101.06,2101.06,0,0,1,4739,4703.76"/><path class="cls-2" d="M5062.38,4387.73q366.93,171.24,715.78,378.11c79,46.85,158,95.65,223.07,160.47"/><path class="cls-2" d="M5801.15,4765.83A551.18,551.18,0,0,1,6014.63,4682c20-3.3,42.38-4.94,58.58,7.2"/><path class="cls-4" d="M5555.05,4633.09a1318.14,1318.14,0,0,1,55.59-415.47"/><path class="cls-3" d="M5318,2466.9c-65.13,1-128.7,19.29-190.56,39.71a2620.63,2620.63,0,0,0-426.24,184"/><path class="cls-3" d="M5356.13,2556.66a1175.75,1175.75,0,0,1-513.65,213.72"/><path class="cls-3" d="M4775.62,2651.52a1105.13,1105.13,0,0,1,70.67,115.61"/><path class="cls-5" d="M4753.57,2653.76a1537.4,1537.4,0,0,0,28.72-290.48"/><path class="cls-3" d="M4633.44,1675.52A1612.26,1612.26,0,0,0,4572,2204.39c.91,18,2.35,36.7,11.43,52.25,15.44,26.43,28.74,48.9,50.6,70.33s50.52,37.57,81.13,38.18c74.12,1.49,141.2-16.31,213.05-34.55"/><path class="cls-3" d="M5209.86,1956.49l-20,158.06c-4.34,34.24-9.51,70.48-31.48,97.09-17.84,21.6-44.33,33.79-69.89,45.28L5030,2283.21"/><path class="cls-3" d="M4631.54,1670.11c-13.52-31.48-27.06-63.28-33.66-96.9-26.69-136,106.54-275,213.3-338.66,99.51-59.37,217.57-84.69,333.34-79.84,32.22,1.36,67.82,6.73,88.32,31.63-19.66,21-19.72,54.65-25.69,82.78-4.59,21.62-8.43,43.9-5,65.74,3.13,19.83,12.15,38.26,22.64,55.38a327.36,327.36,0,0,0,109.7,108.9c-31.24,76.73-63.93,161-51.16,242.84,15.49,5.2,22.16,8.32,37.65,13.52,13.39-82.7,52-154.9,114.38-210.81,24.6-22,53.59-41.32,86.38-45.34s69.62,11,82.58,41.38c6.08,14.27,6.49,30.39,4.33,45.75-6.77,48.1-37,89.63-70.71,124.63s-71.89,66-100.9,104.9-48.34,88.91-36.88,136.11"/><path class="cls-3" d="M4608,1446.8A397.91,397.91,0,0,1,4459,1283.21c-14.56-29.76-25.52-63.19-19.23-95.72,10.12-52.33,63.36-87.46,116.26-94.06s105.75,9,156.76,24.52c-43.92,2.71-83.9-37.26-87-81.16s26.26-86.42,66.07-105.16,87.62-15.76,128.12,1.44,74.34,47.41,102.28,81.4c134.89-106,313.9-161.74,482.09-127.88s318.46,165.67,353.15,333.68c12.64,61.19-5.49,131.45-22.92,191.45a1347.18,1347.18,0,0,1-317.85,551.9"/><path class="cls-3" d="M5323.7,2482.05c-55.48-76-61.92-179.17-39-270.41s71.77-173.5,120.16-254.17c2.24-3.73,8.92-6.86,9.56-2.56"/><path class="cls-3" d="M4921.83,1867.76c4-5.45,9.24-11.89,15.85-10.58,12.95,21.91,13.51,50.35,2.44,73.27s-33.13,39.94-57.85,46c-9.48,2.32-19.88,3-28.63-1.29-28.52-14.05-23.13-41.11-.08-53.14C4880.38,1908,4903.72,1892.69,4921.83,1867.76Z"/><path class="cls-3" d="M4733.68,1845.29c-21.15,4-44-11.52-48.2-32.63s11.08-44.14,32.15-48.52c4.29-.89,8.81-1.14,12.68-3.19,4.48-2.38,7.42-6.83,10-11.18a259.55,259.55,0,0,0,36.92-135.07"/><path class="cls-3" d="M4634.47,1657.12h-2.55c29.47-21.69,67.76-31.09,104.14-27.24,2,.21,4.7,1.44,4,3.35"/><path class="cls-3" d="M4900.77,1645c40.18-31.22,96.23-40.79,144.49-24.67"/><path class="cls-3" d="M4609.74,1586.33c8.14-5.85,18.45-7.49,28.31-9.3a557.52,557.52,0,0,0,59.18-14.52c12.49-3.74,25.59-8.28,33.87-18.36s9-27.42-1.84-34.66c-7.33-4.89-17-3.7-25.64-2A356.41,356.41,0,0,0,4640,1526.3c-15.83,6.33-32.51,15.15-38.87,31"/><path class="cls-3" d="M5051.35,1561c12.29,1,27.48-.36,32.64-11.57,3.59-7.81.2-17.4-5.84-23.51s-14.25-9.5-22.21-12.75c-21.56-8.77-43.37-17.62-66.39-21.08-16.78-2.52-33.85-2.13-50.82-1.65-21.12.59-39.41,5.51-43.12,28.91-2.74,17.26.91,32.59,19.06,34.88,19.32,2.44,40.63-4.25,60.53-2.79C5000.73,1553.35,5025.84,1558.9,5051.35,1561Z"/><path class="cls-3" d="M4961.69,3482.92a1817.74,1817.74,0,0,0,340.29,9.71"/><path class="cls-3" d="M4946.94,4285.41c-28.19-13.7-45.8-42-61.9-68.89l-48.55-81.08"/><path class="cls-3" d="M4130.39,4254.94a771.12,771.12,0,0,1-208.12-178.32c-16.33-20-29.71-54.08-7.71-67.65,14.16-8.74,32.34-.61,46.87,7.52l191,106.85a704.79,704.79,0,0,1-206.26-165.86c-10-11.74-19.85-24.41-23-39.48s2.4-33.11,16.43-39.46c11.05-5,24-1.75,35.46,2.15,76,25.76,141.12,75.4,204.76,124.22a1398.23,1398.23,0,0,1-187-156.57c-15.89-15.86-32.62-38.19-23.26-58.59,12-26.19,50.85-19.41,77-7.27a962.2,962.2,0,0,1,186.15,113.79,658.64,658.64,0,0,1-154.79-127.4c-13.81-15.46-27.66-36.74-18.63-55.39,6.07-12.56,20.71-18.64,34.56-20.38,45.6-5.75,87.58,23.12,124.46,50.55l136.19,101.27"/><path class="cls-3" d="M5560.11,1562.32c-10.29-14.46-31.41-17.77-48.16-11.91s-29.91,18.91-41.47,32.38a371.27,371.27,0,0,0-74.25,137c5.91-.4,10.26,5.42,12.57,10.87a62.06,62.06,0,0,1-1.37,50.78"/><path class="cls-3" d="M4400.16,2674.62c55.59-35.32,112.53-68.92,172.91-95.25s124.43-45.34,190.1-50.49"/><path class="cls-3" d="M4656.16,4545.79c-47.49-34.76-96.32-70.2-153-86.16-22.9-6.46-46.65-9.58-69.5-16.22a235.41,235.41,0,0,1-103.21-62.33"/><path class="cls-6" d="M3787.46,3765.4c22,1.58,44.95,3.43,64,14.57s32.94,34.56,25.8,55.46c-6.36,18.63-27.23,29.12-46.92,29.52s-38.55-7.16-56.78-14.59"/><path class="cls-6" d="M3769.2,3889.15q16.56.82,33.06,2.54c23.59,2.45,49.27,7.46,64.28,25.83,6.74,8.24,10.51,20.56,4.65,29.44-3.16,4.78-8.48,7.62-13.74,9.9a124.08,124.08,0,0,1-97.24.11"/><path class="cls-7" d="M3743.35,3990.77c32.55.25,65,8.92,92.19,24.68,6.79,3.93,13.42,8.45,17.58,14.61s5.37,14.3,1.2,20.45c-3.24,4.8-9.1,7.66-14.72,10.25-17.08,7.87-34.89,15.36-54,17.2s-40.13-2.92-52.42-16"/><path class="cls-6" d="M3728.52,4102.92a296.69,296.69,0,0,1,79.4,20.87c8.76,3.67,18.12,8.57,21.43,17.46s-.79,19.09-7.63,25.57-16,9.92-24.93,12.81a337.12,337.12,0,0,1-39.09,10.09,150.65,150.65,0,0,1-22.46,3,97.78,97.78,0,0,1-32.61-4.13"/><path class="cls-7" d="M864.06,3312.79c-312.37,100.08-546.61,379.73-647.09,692s-80.72,652.72-4.51,971.76c11,46.19,28.62,98.47,72.92,115.59C392.81,5133.63,490,5179,603.91,5195.66"/><path class="cls-7" d="M1706.54,5285.44a216.17,216.17,0,0,0,32-40.56c19-31.1,29.82-66.47,38.4-101.89a948.89,948.89,0,0,0,26.2-249.36c-108.37-8.31-220.87-18.55-325.55-47.84-76.59-21.43-154-49.06-233.3-43.14-5.63.42-9.4,10.82-4.34,8.3"/><path class="cls-7" d="M860.19,4760.44c-142.31-11.47-288.1,25.73-407.53,104-7.72,5.06-15.86,11-18.42,19.85"/><path class="cls-7" d="M612.64,4778a628.24,628.24,0,0,0-250.18-36.61"/><path class="cls-7" d="M513.41,3518.36c55-17.59,112.73,21.72,147.09,68.15,70,94.53,83.66,218.62,86.06,336.21,5.85,286.71-41,571.58-87.66,854.53"/><path class="cls-7" d="M717.39,4431.33a1731.35,1731.35,0,0,0,261.81-719c97.9,7.13,202,3.53,299.87-3.6l469.21-34.2c55.13,232.17,166.53,443.08,323.64,622.69"/><path class="cls-7" d="M1640.3,3663.77A859,859,0,0,1,1626.47,3324c4.15-25.88,13.81-56.37,39.22-62.77,23.11-5.82,46.31,13.84,53.69,36.5s3.42,47.23.52,70.89a743.63,743.63,0,0,0,31.42,320.87"/><path class="cls-7" d="M981,3701.47c23-131.6-13.18-272.43-96.85-376.58-11.07-13.78-23.73-30.18-19.07-47.23,3.42-12.47,15.61-20.85,28.16-23.95a59.18,59.18,0,0,1,38.9,3.79c15.09,7,26.41,20.05,37.12,32.8,16.52,19.66,32.79,39.68,46,61.72,36.42,60.85,47.25,133.19,56.33,203.52,6.4,49.58,12.25,100.34,1.58,149.17"/><path class="cls-7" d="M954.86,3893a2813.35,2813.35,0,0,0,831.24-31.88"/><path class="cls-7" d="M1966.62,4147.92l-43.8-264.45c-5.78-34.92-11.56-70.67-5.18-105.49,4-22,12.81-42.87,22.7-62.94a573.9,573.9,0,0,1,134.93-176.24"/><path class="cls-7" d="M1740.44,3348.48a23.09,23.09,0,0,1-16.91-5.88l377.15,193.08c30.5,15.61,61.72,31.76,84.73,57.16,28.81,31.8,41.64,74.53,53.64,115.73,53.52,183.77,102.89,366,116.58,556.89"/><path class="cls-7" d="M1700.94,5286.81c-8.71-13.66-24.35-21.07-39.47-26.9a424.37,424.37,0,0,0-225.15-21.78"/><path class="cls-8" d="M1811.18,4891.93c56.63,30,125.66,19.3,187.63,3,27-7.1,55.61-15.11,82.17-6.63,23.18,7.4,41.15,26.42,64.1,34.52,45.22,16,100.58-13.06,141.14,12.52,23.75,15,34.22,45.27,32.92,73.32"/><path class="cls-8" d="M2261.51,5011.61c-11.09-11.39-27.43-16.43-43.31-17s-31.59,3-47.09,6.46c72.11,52.64,156.88,87.28,224.25,145.87,8.08,7,16.62,17.09,13,27.15-2,5.62-7.38,9.29-12.7,12-33.82,17.32-78.8,9.08-104.28-19.1"/><path class="cls-8" d="M2289.7,5171.32l-157.62,129.86c-24.25,20-49,40.26-78.24,51.79-34.62-25.12-66.64-44.42-101.27-69.54-31.23-22.66-63-45.78-86.33-76.48-7.14-9.36-13.52-19.45-22.3-27.28-15.63-13.94-37-19.16-57.35-23.92"/><path class="cls-8" d="M1580.29,3294.71c-53.58,83.28-140.58,144.38-237.1,166.52s-201.44,5.08-286-46.51"/><path class="cls-8" d="M1023,3347.9c81,39.33,166.58,79.63,256.49,74.48,109.22-6.26,203.74-78.94,275.71-161.32"/><path class="cls-9" d="M1323.63,3427.29c-3-2.8-8.17-2.05-11.26.69s-4.52,6.86-5.39,10.89a23.84,23.84,0,0,0-.56,8.81,11.1,11.1,0,0,0,4.35,7.46,12,12,0,0,0,7.7,1.72c7.48-.59,14.41-6.17,16.25-13.44,1.06-4.16.38-9-2.6-12a12.82,12.82,0,0,0-5-3.05,17.78,17.78,0,0,0-9.48-.64"/><path class="cls-9" d="M1298.38,3441.82a111.81,111.81,0,0,1-46,.67"/><path class="cls-2" d="M880.38,2700.56c-37.73-23.58-89.06-46.59-123-17.8-31.08,26.37-22.1,76.1-6.93,113.93,20.06,50,55.48,103.84,109.29,106.82-27.82,21.72-36.17,61.56-29.33,96.18s26.24,65.28,45.82,94.64c33.09,49.64,70.44,100.47,125,124.51,33.19,14.62,70.34,18.12,103.91,31.86,73.5,30.08,131.62,108.66,210.73,101.56,26.77-2.4,51.45-14.87,75.37-27.11l125.44-64.2c-2.07-6.82,7.64-8.93,13.06-13.57l152.15-130.31c9.58-32,18.17-78.61,27.76-110.59,38-126.69,76.32-256.12,72.06-388.31"/><path class="cls-2" d="M882.74,2690.59c73.66-56.37,118.16-143.63,143.07-233,66.24,13.64,135.42-10.4,188.59-52.19s91.2-100,121-160.69c20.63,39.36,64.88,53.07,106.63,68.29,18.73,6.83,37.51,13.67,56.89,18.32,68.16,16.34,142.75,3.82,201.84-33.86l3-1.91c-5.6,40.78-3.81,79.45-.34,120.47,6,70.95,38.53,136.55,70.51,200.17"/><path class="cls-10" d="M747.89,2681.85c-24.29-22.72-35.35-56.67-35.54-89.6s9.46-65.18,21.48-95.93c58.85-150.48,177.94-276.31,323.94-350.09s317.37-96,479-67.63c35.37,6.21,70.76,14.92,102.26,31.87s59,42.72,73.59,75,15.2,71.38-2.31,102.26"/><path class="cls-10" d="M1711.43,2181.54c35.82,18,63.11,50.17,80.78,86.13s26.43,75.63,32.11,115.29c11.31,79,9.74,164.23-31.61,232.49"/><path class="cls-10" d="M1781.83,2642c7.06-11,22.8-14.35,35-9.52s20.82,16.24,25.24,28.58c9.3,25.95,1.74,55.39-12.47,79a109.67,109.67,0,0,1-15.67,20.67,86.34,86.34,0,0,1-37.48,22.23"/><path class="cls-10" d="M1056.62,2126.05c7.49-53.59-25.55-104.76-64.43-142.39-51.73-50.09-123.46-87.69-194.11-73.75-43.94,8.67-81.74,36-115.88,65a962.81,962.81,0,0,0-113.31,113.72c-25.29,30-49,62-63.93,98.32-11.3,27.46-17.34,56.82-21.13,86.26-3.58,27.81-5.17,56.37,1.41,83.62,12,49.66,50.94,90.26,97.39,111.5s99.54,24.7,150.13,17.7"/><path class="cls-7" d="M952.72,3258.07l7.26-7.29c10.82-10.85,22.2-22.76,24.6-37.9"/><path class="cls-7" d="M1543.67,3258.68a17.64,17.64,0,0,0-5-12"/><path class="cls-8" d="M778,2769.27c-8.55-14.91-1.92-35.77,12.61-44.94s34.53-7.16,48.52,2.82,22.2,26.76,24.18,43.83c-6-1.6-12.55,1.57-16.5,6.4s-5.78,11-7.1,17.12a140.7,140.7,0,0,0-.12,59.21"/><path class="cls-8" d="M1286.81,2942.15c-13.84,6.48-24.07,18.67-33.14,31a423,423,0,0,0-74.25,168.4"/><path class="cls-8" d="M1465.91,2962.82c8.71,72.71-17,144.64-42.25,213.37-.62,1.68-1.39,3.53-3,4.27s-4.08-.79-3.4-2.45"/><path class="cls-8" d="M1272.23,2999.88c36,43.33,92.12,69.19,148.45,68.39-16.69,16.35-41.28,26.1-62.67,35.49-18.14,8-39.38,13-57.48,5-14-6.24-24-19.73-28.61-34.39s-4.43-30.43-2.45-45.67C1270.19,3023.17,1266.69,3000.15,1272.23,2999.88Z"/><path class="cls-8" d="M1402,2925.8a102,102,0,0,0,65.27-45.75c3.74-6.08,6.86-12.63,8.18-19.64,3.11-16.59-4.12-33.16-10.85-48.63-17.48-40.16-33-83-29.23-126.66"/><path class="cls-8" d="M1541.21,2794.3c-4.35-9.47,4.53-19.72,13.49-25a89.07,89.07,0,0,1,76.8-6.2c16.5,6.47,36.77,1.75,48.7-11.35a1.4,1.4,0,0,0,.34-.82"/><path class="cls-8" d="M1309.75,2772.28a62.08,62.08,0,0,0-2.42-6.65c-5.84-12.88-19.94-20.35-33.93-22.39s-28.18.44-42.2,2.28-28.59,3-42-1.42-25.45-15.85-26.5-29.95"/><path class="cls-8" d="M1197,2588.6c31.18-21.26,64.77-41,102.09-46.6a7.06,7.06,0,0,1,4.37.3c1.57.85,2.27,2.7,2.8,4.4a102.57,102.57,0,0,1,4.53,28.68c0,3.14-.11,6.45-1.76,9.11s-4.58,4.28-7.38,5.73a391.73,391.73,0,0,1-100.4,35.54c-9.22,1.91-36.2,9.11-37.57-4.41C1162.53,2609.7,1189.29,2593.89,1197,2588.6Z"/><path class="cls-8" d="M1577.08,2558.63c-.09-1.13-1.86-.24-2.32.79a235,235,0,0,0-12.92,37.06c-.94,3.65-1.77,7.6-.4,11.11,28.89,21.54,66.74,29.7,102.53,25.44C1653.41,2594.34,1616.39,2566.57,1577.08,2558.63Z"/><path class="cls-11" d="M521.65,6568q19.3-518.34,21.44-1037.19c.26-63.9.38-128.31,12.75-190.88,32.22-163,152.95-303.4,304.35-354"/><path class="cls-11" d="M857.59,5035.93q3.76-201.63,13.63-403.07"/><path class="cls-12" d="M1239.85,4620.42q-11.64,211-36,421.46"/><path class="cls-11" d="M897.81,4610.76c95.5-49.49,212-56.68,312.84-19.31,13.82,5.12,29.87,15.15,27.84,29.75-1.28,9.22-9.59,15.65-17.48,20.59-46.62,29.19-101.49,42.88-156.21,48.48-41.7,4.28-85.23,3.57-125.43-9.45-19.27-6.25-39-15.38-54.47-28.63C862.84,4633.36,876.58,4621.77,897.81,4610.76Z"/><path class="cls-13" d="M868.18,4857.42c.77-.93-1.56-1.73-2-.61s.44,2.3,1.3,3.16c12.37,12.33,28.16,20.63,43.72,28.71s31.38,16.27,48.06,22.06c42.51,14.78,89.46,13.61,133.33,3.45s85.2-28.94,125.43-49c2.94.76,2.6,6-.41,6.39s-4.69-4.6-2-6.08"/><path class="cls-11" d="M860.86,5034.89c-.57,9.22,7.73,16.27,15.21,21.69A255.36,255.36,0,0,0,898,5071.33c29.94,17.24,65.55,21.57,100.09,22.31a556.37,556.37,0,0,0,108-8.24c35.9-6.29,72.92-17.1,98.68-42.88"/><path class="cls-11" d="M1216.18,4987.59a353,353,0,0,1,157.88,142.17c68,116.14,63.74,259.22,57.48,393.66l-28.86,619.33c-.67,14.59-1.86,30.46-11.67,41.29"/><path class="cls-14" d="M1427,5353.32c-113.18,96.06-261.76,147.68-410.9,154.18S717.57,5477,583.59,5412c-14.37-7-30.3-16.51-32.57-32.16"/><path class="cls-15" d="M1419,5246.45c-62.84,78.37-157.5,128.43-254.88,162.19-67.16,23.28-139.74,27.48-211.22,28.35-140.58,1.73-281.25-46-388.95-131.89l7.79,1"/><path class="cls-15" d="M1400.19,6258.31a2489.19,2489.19,0,0,1-3.67,260.15"/><path class="cls-16" d="M522.09,6567.62c42.88,77.59,114.84,139.59,199.22,171.64,136,51.66,298.67,6.56,440.52-27.22,44-10.48,88.37-23.5,125.24-49.08,50.62-35.11,82.09-90.2,109.45-144.5"/><path class="cls-16" d="M1141.63,6241.39l190.58-308.75-269.36-358.3s2.54-6.36-218.54,373.55"/><path class="cls-17" d="M844.31,5947.89l231.25,307.48"/><path class="cls-18" d="M570.63,6007.14l14.21-378.08c.58-15.51,1.3-31.58,8.17-45.43s21.74-24.83,36.64-21.86c24.6,4.89,29.19,38.41,28.08,64q-6.74,156.45-13.48,312.89c-.78,18.1-1.55,36.36,1.38,54.23,5.17,31.53,21.48,59.83,37.48,87.3L793.33,6269.4c223.75-3.62,454-5.78,656.37-103.33,28.22-13.6,56.25-29.25,77.44-52.65-4.55-10.66-7.67-25-12.25-35.61q-46-106.87-96.9-211.47"/><path class="cls-18" d="M1541.65,6182.69c-219.66,110-465.62,164.6-710.13,157.67-30.61-.87-61.33-2.7-91.31-9.08-66.38-99.69-122.52-209.22-169.58-319.8"/><path class="cls-18" d="M1418.55,5763.74q40.21,75.19,79.31,151c34.36,66.62,68.32,134.23,87.42,207-11.92,25.47-29.92,47.83-52.82,63.61"/><path class="cls-19" d="M956.6,5939a237.59,237.59,0,0,0,38.07-63.88"/><path class="cls-19" d="M981.08,6050.76A552.8,552.8,0,0,0,1027.89,5839"/><path class="cls-19" d="M1024.71,5903.5a394,394,0,0,1,36-47.89c.61-.69,1.54-1.45,2.35-1s-.54,1.93-.72,1"/><path class="cls-19" d="M1011.87,5983.94a70.24,70.24,0,0,1,27,47.79"/><path class="cls-19" d="M1081.15,5969.6a906.57,906.57,0,0,1,.41-132.05c28.38-.42,55.3-6.28,83.68-6.7,19.31-.29,38.7-.57,57.81,2.17,2.64,42.16,1.26,87.69.52,129.92"/><path class="cls-19" d="M1147.28,5864.62a470.57,470.57,0,0,1-2.66,111.75"/><path class="cls-19" d="M1108.46,5898.18q42.43.56,84.88-.25"/><path class="cls-19" d="M1163.42,5895.47a55.63,55.63,0,0,1,24.44-28.32"/><path class="cls-19" d="M1111.05,5872.85a33.44,33.44,0,0,1,17.11,25.47"/><path class="cls-19" d="M1141.74,5908.5a144.17,144.17,0,0,0-41.11,45.73"/><path class="cls-19" d="M1153.17,5910a95.12,95.12,0,0,1,38.28,46.42"/><path class="cls-19" d="M1076.14,6061.29l-1.5-.82c31.26-9.21,57.42-34.21,68-65-1.89,1,3.48,7.43,4.37,9.38,6.6,14.5,14.92,28.72,27.4,38.63s29.85,14.84,44.78,9.27"/><path class="cls-19" d="M1076.15,6013.86l149.49-3.16"/><path class="cls-19" d="M1139.69,5832.56a398.43,398.43,0,0,0,35.92-34.17"/><ellipse class="cls-20" cx="2344.93" cy="4525.35" rx="817.8" ry="251.9"/><ellipse class="cls-21" cx="2352.78" cy="4618.13" rx="566.68" ry="166.52"/><path class="cls-2" d="M1520.6,4554.6c7,311.56,5.64,276.65,6.32,294.11"/><path class="cls-2" d="M1527.14,5246.45l-6,321.83S2250,6270.4,3015.68,5661.89"/><path class="cls-2" d="M3142.73,5197.5c15.66-646.06,20-629.73,20-629.73"/><path class="cls-2" d="M1526.92,5404s756.72,564.83,1476.28,72.7"/><path class="cls-2" d="M1700.94,5297.72s783.48,430,1441.79-142"/><path class="cls-2" d="M2223.29,5226s525.84,128.22,919.44-279.4"/><path class="cls-22" d="M2553.31,5022.51c157.77-15.43,386.22-68.74,558.54-252.38q23.36-24.9,43.5-50.8"/><path class="cls-23" d="M1710,4883.38S1569.54,4812,1526.2,4752.25"/><polyline class="cls-23" points="2202.43 5022.51 2670.68 5022.51 2662.14 5139.48 2395.36 5146.98"/><line class="cls-24" x1="2787.45" y1="4754.52" x2="2794.91" y2="4958.78"/><line class="cls-23" x1="1992.89" y1="4767.72" x2="1992.89" y2="4892.45"/><line class="cls-25" x1="3006.19" y1="4863.39" x2="3015.68" y2="5055.27"/><line class="cls-26" x1="2848.81" y1="5155.75" x2="2856.63" y2="5339.69"/><line class="cls-26" x1="2955.48" y1="5300.96" x2="2964.16" y2="5495.77"/><line class="cls-26" x1="2831.27" y1="5578.24" x2="2831.27" y2="5784.73"/><line class="cls-26" x1="2446.99" y1="5452.83" x2="2436.56" y2="5678.03"/><line class="cls-26" x1="2095.47" y1="5654.2" x2="2081.34" y2="5869.53"/><line class="cls-26" x1="1857.06" y1="5364.53" x2="1835.13" y2="5561.28"/><line class="cls-2" x1="2199.9" y1="4296.44" x2="2199.9" y2="4451.6"/><line class="cls-2" x1="2618.37" y1="4307.09" x2="2610.64" y2="4468.51"/><line class="cls-27" x1="2928.01" y1="4362.63" x2="2909.46" y2="4579.92"/><line class="cls-28" x1="1787.06" y1="4595.66" x2="1787.06" y2="4356.54"/><path class="cls-29" d="M1904.09,4503.91c2.17-19.54,15.26-36.36,30.65-48.6s33.25-20.92,49.78-31.58a241.41,241.41,0,0,0,48.91-41.77c15.49-17.31,28.85-37.93,31-61.05,10.81,14.2,31.57,14.24,48.89,18.55,28.3,7.05,51.62,28.72,64.81,54.73s17.05,56,15.56,85.08c-.36,7-1.14,14.3-5.16,20-5.06,7.2-14,10.23-22.12,13.72a123.75,123.75,0,0,0-43.38,31.49"/><path class="cls-9" d="M2067.89,4331.43c3.52,30.47-8.68,62.34-31.65,82.68-1.13,1-2.25,3-1,3.73"/><path class="cls-9" d="M2072.18,4332.44a165.7,165.7,0,0,1,7.16,93.74"/><path class="cls-9" d="M2079.23,4339.07c12,11.21,26.56,19.29,40.14,28.57s26.68,20.31,33.82,35.12c.19.38.36.88.08,1.2s-1-.2-.6-.43"/><path class="cls-29" d="M2326,4466.53a120.79,120.79,0,0,1,46.75-37.92c26.43-12.06,58.29-15.26,78.37-36.25,10.73-11.23,16.55-26.15,22.1-40.67,2.5,5.36,1.86,11.6,3,17.41s5.45,12,11.33,11.49,8.84-7.16,10.65-12.76q2.13-6.66,4.28-13.31a145.17,145.17,0,0,0,13.18,25.8c2.79,4.32,5.81,8.5,8.83,12.67l14.59,20.19c4.18,5.79,8.38,11.6,13.38,16.69,6,6.09,13,11.05,19.54,16.52a159.59,159.59,0,0,1,17.39,16.91c8.75,9.9,16.6,22,16,35.17-.45,9.84-5.56,18.83-11.2,26.9a178.78,178.78,0,0,1-59.15,53.45c-8.5,4.73-17.56,8.83-27.21,10-11.58,1.42-23.41-1.42-35,.32"/><path class="cls-9" d="M2526.22,4487.55c-.9-.2.24,1.52.74.74s-.28-1.72-1-2.33c-7.37-6.63-12-15.71-16.39-24.57-12.24-24.51-24.69-49.71-27.34-77-.14-1.38,1.07-3.42,2-2.38-1.82,7.93-6.74,12.09-9.42,19.77a138.43,138.43,0,0,1-11.58,25.56,102.15,102.15,0,0,1-34.32,34.66"/><path class="cls-9" d="M2502.76,4376.3a138.67,138.67,0,0,0,35.81,70c8.18,8.57,17.81,16.61,21.5,27.86"/><path class="cls-29" d="M2136.35,4662.77c8.64,7.86,19.82,12.29,31,15.8,45.83,14.44,95.31,16,142.52,7.06s92.17-28.22,132.7-54c7.16-4.56,14.36-9.49,19.15-16.5,5.09-7.46,7-16.57,8.78-25.42,2-9.78,3.93-20.07.88-29.57-2.31-7.2-7.3-13.21-12.56-18.64a155.72,155.72,0,0,0-65.58-40.15c-12.52-3.86-25.7-6.19-37.15-12.56-24.85-13.82-36.1-43.06-44.57-70.21-8.05,10.77-12.69,23.66-19.47,35.28a110,110,0,0,1-71.9,51.59c-11.51,2.36-23.37,2.84-34.79,5.63a89.08,89.08,0,0,0-50,33.19"/><path class="cls-9" d="M2231,4543.36c16.82-3.18,29-17.37,39.65-30.79,18.41-23.28,37.21-49.57,36.2-79.23-6,48.26,15,93.87,19.37,142.3"/><path class="cls-9" d="M2315,4434.17a109.45,109.45,0,0,0,86.66,111.57c.71.16,1.59.25,2.06-.31s-.45-1.65-.88-1.05"/><path class="cls-29" d="M1882.14,4534.11c-23.46,15.7-43.07,40.6-43.42,68.82-.38,31.35,23.47,59,51.85,72.28s60.64,15.05,92,15.79c49.53,1.16,101-.06,145.53-21.76,25-12.15,48.55-33.66,50.52-61.35,1.89-26.43-16.57-50.34-38-65.85s-46.61-25.45-67.94-41.15c-10.14-7.46-19.46-16.63-26.18-27.32-3.52-5.6-7.13-25.65-11.85-28.66-10.07-6.43-18.86,11.67-25,18.85C1976.6,4502.34,1923,4506.76,1882.14,4534.11Z"/><path class="cls-9" d="M2020,4452.24c-6.16,15.13-12.48,30.29-21.26,44.07a143.41,143.41,0,0,1-70.64,57"/><path class="cls-9" d="M2030.59,4448.52a106.9,106.9,0,0,0,38.49,122.15"/><path class="cls-30" d="M2718.85,4482.24a237,237,0,0,0,56.43-105.94l2.41,17.56c4.55,2.44,10.45.48,14.09-3.19s5.52-8.67,7.31-13.52c-2.16,26.62,6,53.17,18,77.05,7.05,14.09,15.69,27.77,28,37.66,22.89,18.44,56.68,22.42,74.48,45.81,13.7,18,13.32,45.36-.87,63-5.32,6.61-12.2,11.79-19.38,16.31a157.63,157.63,0,0,1-73.42,23.83c-3.52.23-7.36.47-10,2.85"/><path class="cls-31" d="M2786.33,4395c-3.75,44.71,15.72,90.74,50.42,119.18"/><path class="cls-31" d="M2779.7,4397.91c1.08,31-14.71,59.86-30,86.86"/><path class="cls-30" d="M2558.7,4671.6c-13.5-3.42-27.28-8.52-36.56-18.91-10.24-11.47-13.45-28-11.22-43.25s9.31-29.31,17.59-42.27c11.27-17.63,25.46-34.17,44.21-43.46,10.37-5.14,21.78-7.89,32.3-12.71,19.61-9,35.47-25,46.74-43.4s18.19-39.15,23.09-60.16a314.39,314.39,0,0,0,7.46,38.71,57.84,57.84,0,0,0,21.49-34.78l6.57,60.43c.74,6.85,1.54,13.87,4.63,20,5.95,11.85,19,18.06,31.1,23.43l38.84,17.22c12.41,5.5,25.32,11.38,33.82,22,5.54,6.9,8.8,15.36,11.28,23.86,3.4,11.63,5.5,24.07,2.59,35.83-5.23,21.06-25.14,35.12-45.08,43.68-28.07,12-58.56,16.91-88.89,18.6-28.94,1.61-58.61,2-87.51,1.84A218.35,218.35,0,0,1,2558.7,4671.6Z"/><path class="cls-31" d="M2682.61,4450.14a255.82,255.82,0,0,1-57.82,101.37"/><path class="cls-31" d="M2687.71,4446.27A145.65,145.65,0,0,0,2736.85,4555l-2.5-2.3"/><ellipse class="cls-20" cx="3969.02" cy="5245.16" rx="950.34" ry="234.81" transform="translate(-303.09 243.77) rotate(-3.39)"/><path class="cls-32" d="M3010.93,5349.06s3.91,1293.9,846,1291.51,1048.67-823.9,1069.33-1398"/><path class="cls-33" d="M3080.37,5864.62S3936,6230.76,4832.14,5839"/><path class="cls-1" d="M3068.45,5787.51s870.31,366.14,1781.9-25.64"/><path class="cls-34" d="M3055.22,5719.86s882,366.14,1805.91-25.65"/><path class="cls-19" d="M3261.82,5193.58c10.14,18.11,31.76,27.41,52.51,28.12s41-5.8,60.6-12.64c61.58-21.48,122.26-47.18,186.6-57.84s134.53-4.59,187.83,33"/><path class="cls-19" d="M3182.93,5281.55a878,878,0,0,1,303.67,21.87c68.73,17.3,135.16,42.88,203.9,60.11s141.49,25.92,210.28,8.88c53.51-13.25,102-41.36,153.83-60.2s111.56-27.71,160.65-2.65"/><path class="cls-19" d="M3647.61,5293.22a311.25,311.25,0,0,1,160-5.73c29.39,6.75,57.88,17.81,87.83,21.24,72.73,8.34,142.5-28.9,203.42-69.5,13.44-9,27.46-19,33.23-34.14s-1.4-36.06-17.37-38.5"/><path class="cls-19" d="M4221.51,5111.24c36.61-5.22,73.83.63,110.15,7.62,19.5,3.75,39.33,8,56.49,18s31.48,26.87,33.43,46.63c1.73,17.47-6.5,34.89-18.85,47.36s-28.44,20.58-44.88,26.76a256.07,256.07,0,0,1-134,12.37c-3.67-.65-9.45,1.31-7.54,4.51"/><path class="cls-19" d="M4443.08,5122.42c33.26-5.11,68.1-10.08,99.87,1,10.32,3.61,20,8.83,30.4,12.24,28.37,9.34,59.94,4.41,87.23-7.71"/><path class="cls-19" d="M4617.5,5167.26c.36,29.91-13.73,58.71-33.82,80.88s-45.84,38.42-72.25,52.48c-37.19,19.81-77,36-118.94,40.37-25.62,2.67-55.11,2.43-71.92,21.94"/><path class="cls-19" d="M3907.69,5118.9c-24.36-14.66-54.21-17.58-82.52-14.95s-55.87,10.36-83.82,15.62a483.36,483.36,0,0,1-92.75,8.34c-19-.13-39-1.65-55.21-11.61"/><path class="cls-19" d="M3320.37,5365.25c22.26-11.52,48.23-12.86,73.29-13.36,23-.45,46.49-.31,68.35,6.9,14,4.61,26.83,12,40.3,17.88a207.54,207.54,0,0,0,119.75,14"/><path class="cls-19" d="M3838,5196.52c16.3-5.43,32.25,7.45,46.67,16.77a129.38,129.38,0,0,0,67.17,20.56c46,.94,89.07-22.52,134.83-27"/><path class="cls-19" d="M4623.79,5302.26a83.27,83.27,0,0,1,37.19-49.21c16.31-9.76,35.41-13.57,53-20.88a142.48,142.48,0,0,0,68-59.7"/><path class="cls-19" d="M4163.74,5154.25c20.42-2.36,41.23-4.71,61.41-.8,19.47,3.77,37.34,13.17,56.15,19.46s40.22,9.25,57.95.34"/><path class="cls-19" d="M4092.24,5071.49c4.06,14.36,20.64,21.93,35.55,21.39s28.81-7.12,42.83-12.21a227.34,227.34,0,0,1,147.06-2.32c18.75,6.14,36.84,14.79,56.32,17.93,60.4,9.76,124.85-34.25,180.69-9.23"/><path class="cls-19" d="M3377.67,5201.92c42.39-38.58,101.83-57.67,158.75-51,15.23,1.78,31.65,5.11,45.15-2.15"/><path class="cls-19" d="M3248.24,5340.6c7.87-13.7,25.22-18.08,40.72-21.18,35-7,73.23-13.63,104.93,2.8,15.66,8.12,28.1,21.14,42.05,31.94A175.08,175.08,0,0,0,3563.87,5389"/><path class="cls-19" d="M3465.14,5273c36.91-24.38,87.74-25.72,125.88-3.33,25.79,15.14,46.26,40.13,75,48.32,34,9.67,69.47-6.72,100.32-23.94s63.83-36.4,98.94-32.55"/><path class="cls-19" d="M4058.79,5123.66c27.21-4.13,56.67-7.89,80.87,5.22,17.26,9.34,29.14,25.94,43.28,39.56a155.52,155.52,0,0,0,85.43,41.67"/><path class="cls-19" d="M4207.6,5241.92c31.62,18.35,74.18,15.68,103.26-6.48,15.52-11.84,26.91-28.19,40.77-41.93a159.68,159.68,0,0,1,89.48-44.32c19.71-2.76,42.21-.77,55.63,13.93,10.73,11.75,18.29,32.15,34,29.83,4.46-.66,10.45-2.64,12.41,1.42"/><path class="cls-19" d="M4731.62,5100.6c-9.4,34.28-35.55,62.37-66.6,79.67s-66.69,24.76-102.11,27.79c-19.89,1.7-40.19,2.14-59.14,8.44s-36.83,19.85-42.24,39.07"/><path class="cls-19" d="M4014.93,5384.38a127.4,127.4,0,0,0,74,2.88c22.59-6,43-18,64.17-27.93,81.44-38.15,174.48-44.56,264.13-37.45"/><path class="cls-19" d="M3188.9,5356.18a92.22,92.22,0,0,1,63.18-3.34c25.32,7.85,45.88,26.17,69.35,38.51,45.39,23.85,99.78,24.18,150.22,15s98.85-27.23,148.86-38.55"/><path class="cls-19" d="M3660.38,5302.84c48.69-14.81,103.58-7.79,147,18.78,21.7,13.29,40.47,31.08,62.73,43.38a150.42,150.42,0,0,0,88.23,17.79"/><path class="cls-19" d="M3650.05,5250.18c36.52,16.7,79.41,6,117-8.22s75.72-32.18,115.78-29.27"/><path class="cls-19" d="M3257.18,5209.58c42.45,28.4,96.62,33.84,147.4,28.32s99.87-21,149.91-31.2,102.9-14.95,151.51.7"/><path class="cls-19" d="M4078.52,5129c33.4,2.25,61.79,24.16,93.06,36.1,54.61,20.86,116.8,10.34,170.58-12.56"/><path class="cls-19" d="M4096.91,5323.74c4,16.38,20.38,26.38,36,32.82,73.52,30.34,162.81,18.48,225.85-30,29.13-22.4,54-52.49,88.92-63.89,37.69-12.3,79.17-.11,118.24-6.88"/><path class="cls-19" d="M3606.64,5422.66c-80.29-50.56-185.23-38.75-273-74.69-20.41-8.35-39.78-19.25-60.71-26.2-42.73-14.18-89-11.05-133.91-7.75"/><path class="cls-19" d="M3235.21,5231.42c30.72,29.64,77,38.31,119.36,32.85s81.94-23.26,120.92-40.66,78.84-34.81,121.28-39.38a210.94,210.94,0,0,1,154,45.6"/><path class="cls-19" d="M3889.62,5264.56c26.86,21,65.55,16.59,97.91,5.89s64.17-26.8,98.26-26.07c20.7.44,40.74,7.15,61.29,9.66,47.75,5.85,95-11,140.19-27.64"/><path class="cls-19" d="M4046.57,5176.2c12.41-5.38,26.19-8.58,39.51-6.23s26,11,30.61,23.74c3.19,8.85,2.4,19,6.72,27.31,6.7,13,22.84,17.18,37.13,20.07"/><path class="cls-19" d="M3679.31,5381.48c13.71,14.82,35.52,18.31,55.62,20.1,154.38,13.78,310.43-21.61,452.36-83.87"/><path class="cls-19" d="M3975.2,5414.13c39.84,4.69,80.05-6.62,116.51-23.36s70.16-38.84,105.65-57.54a628.2,628.2,0,0,1,218.35-67.83"/><path class="cls-19" d="M3909,5075c-20.81-1.69-41.32,6.61-58.75,18.11s-32.49,26.18-48.75,39.27a330.91,330.91,0,0,1-175.16,71.19"/><path class="cls-19" d="M3321.5,5171.4c-34.78,2.06-69.93,6.51-102.13,19.82-17.83,7.37-35.4,18.28-44.18,35.46s-5.35,41.6,11.42,51.14"/><path class="cls-19" d="M3143.68,5270.27l-3.89-1.44c-7.29,21.82,6,47.17,26.7,57.3,7.06,3.46,14.75,5.43,22.37,7.37l72,18.34"/><path class="cls-19" d="M3704.09,5404.69c46.74,6.83,94,13.32,141.07,9.81,98.43-7.34,192.6-57.94,290.85-48.45"/><path class="cls-19" d="M4150,5380.56c56.65-6.76,113.88-7,170.7-12.15s114.09-15.47,165.15-40.94c27.95-13.95,57.07-32.92,87.76-27.08"/><path d="M4189.45,3274.08c1.95,3.89,5.84,6.39,9.72,8.36,3.25,1.64,6.79,3.07,10.41,2.73a14.26,14.26,0,0,0,6.15-2.24c5.64-3.56,9.11-10,9.77-16.67,1.25-12.61-9.29-34.56-25-30.28C4187.09,3239.64,4184.13,3263.45,4189.45,3274.08Z"/><path d="M3963.54,3283.62c3.83,10.05,14.91,17.69,25.34,15.1,7-1.74,12.49-7.67,14.84-14.48,5.35-15.46-2.87-39.89-21.87-40.35C3963.2,3243.45,3958.33,3270,3963.54,3283.62Z"/><path class="cls-35" d="M3974.74,3279.46a10.4,10.4,0,0,0,11.09,5.57,9.13,9.13,0,0,0,6.5-5.34c2.34-5.7-1.26-14.71-9.58-14.88C3974.59,3264.65,3972.46,3274.42,3974.74,3279.46Z"/><path class="cls-35" d="M4193,3268.87a10.41,10.41,0,0,0,11.09,5.57,9.15,9.15,0,0,0,6.5-5.34c2.34-5.71-1.26-14.72-9.58-14.88C4192.89,3254.05,4190.75,3263.83,4193,3268.87Z"/><path class="cls-36" d="M4265.8,3256.77a85.62,85.62,0,0,0-9.71-34.91c-5.1-9.65-12.58-18.69-22.85-22.39-12-4.33-26-.35-35.63,8s-15.41,20.46-18.42,32.86c-2.42,10-3.2,20.49-.65,30.41,1.72,6.69,6,16.81,12.45,20.35,7.26,4,15.76-2.38,22.59-5.59A470.44,470.44,0,0,0,4265.8,3256.77Z"/><path class="cls-36" d="M4001.92,3309.69c10.1-12,11.39-29.36,7.66-44.56-3.58-14.56-11.61-28.33-23.81-37s-28.78-11.73-42.67-6.08c-16,6.49-32.92,31.67-15.41,45C3949.76,3283.88,3977.81,3295.9,4001.92,3309.69Z"/><path class="cls-9" d="M4100.41,3350.25c-15.71,2.52-32.58-5.89-40-20s-4.87-32.75,6.08-44.3c5-5.27,13.06-9.14,19.39-5.6"/><path class="cls-2" d="M3763.28,3074.68q-17,126.72-22.24,254.66c-.9,22.06-1.47,44.61,5.13,65.68,7,22.27,21.5,41.33,36.74,59a617.16,617.16,0,0,0,126.57,111.38c57.79,38.23,112.07,66.28,179.43,82.55,37,8.92,75.88,14.28,112.83,5.32s71.65-34.7,82.45-71.15c12.5-3.45,31.28-16.13,42.79-22.1,60-31.05,114.61-74.6,151.58-131.15s55.1-126.8,42.24-193.12c11.08,2.12,26.27-1.57,35-8.73s15-16.78,20.78-26.48c11.72-19.71,22-40.77,25.59-63.41s0-47.21-13.87-65.49-39-28.64-60.79-21.55c-27.21,8.85-40.31,39-49.49,66.12"/><path class="cls-19" d="M4516.06,3211.3c7.14-16.59-1.15-38.15-17.56-45.7a6.17,6.17,0,0,0-3.91-.74c-1.31.33-2.39,1.85-1.78,3.06a128.71,128.71,0,0,1,8.94-40.93c3.18-8,7.34-15.86,14-21.28s16.26-7.91,24-4.28,12,14.4,7.13,21.48"/><path class="cls-2" d="M4480.87,3094.9c-17.68,22.82-53.69,24.61-78.64,10.1s-40.41-41.16-50.46-68.22a278.16,278.16,0,0,1-10.36-157.84,557.12,557.12,0,0,1-134.13,106.73c-36.63,20.84-82.38,37.45-119.71,17.89-7.3-3.82-14.09-9.1-18.21-16.24-6.49-11.21-5.52-25.22-2.52-37.82,6.77-28.5,19.07-54.41,41.74-73,1.09,1.79,2.75-2.48.66-2.71s-3.37,2.14-4.09,4.11c-25.84,70.92-84.69,129-155.94,153.94-23.13,8.09-51.74,11.75-69.62-5-11.34-10.63-15.28-26.94-16.59-42.42-2-23.75-.39-38.06,7.24-60.65-3.54,31.71-7.84,64-21.85,92.66s-39.56,53.51-71.06,58.53a29.76,29.76,0,0,1-11.78,0c-15.13-3.74-19.07-23.24-18.93-38.83a341.19,341.19,0,0,1,52.64-178.5c36.83-58.14,88.83-113.7,144.84-153.69,32.22-23,67.28-42.7,105.34-53.6,39.55-11.33,81.16-12.87,122.29-13.82,49.18-1.13,99-1.45,146.77,10.3s94,36.94,121.63,77.62c-7.35-19.83-8.09-42.93,5.24-59.34a62.36,62.36,0,0,1,56.52-21.93c3.51.52,7.34,1.61,9.17,4.65,2.12,3.54.61,8.08-1.21,11.79a85.18,85.18,0,0,1-36.38,37.41,142.09,142.09,0,0,1,82.74-41.79c3.27-.44,6.69-.75,9.81.33,8.6,3,10.4,15.35,5.67,23.13s-13.49,12-21.77,15.78l-54.65,25.06c-13.22,6.06-28.66,15.69-27.43,30.18.49,5.66,3.61,10.7,6.54,15.57a390,390,0,0,1,52.35,248.37"/><path class="cls-37" d="M4121.86,3455.69c29.6-4.07,56-20.19,81.36-35.94,21.57-13.37,45.23-29.74,49.3-54.79,2.25,6.55,9.53,10.29,16.45,10.54s13.61-2.25,20.08-4.72l20.7-7.89"/><path class="cls-37" d="M4252.49,3375.74q6.7,27,11,54.44c3.14,20.12,4.46,43.22-9.31,58.22-11.27,12.28-29.29,15.23-45.91,16.37-8.05.55-16.23.83-24.1-.94-17.54-4-31.12-17.44-43.67-30.32-5.54-5.7-11.46-12.27-11.39-20.21"/><path class="cls-37" d="M4147.59,3473.4c46.39-2.64,89.75-34.87,105.65-78.53"/><path class="cls-37" d="M4201.75,3497.81c8.62-22.8,36.48-36.27,59.7-28.85"/><path class="cls-37" d="M3901.74,3182.05c1.79-6.14,5.47-11.58,9.61-16.46a93.06,93.06,0,0,1,69.66-32.45c5.17,0,11,.77,14,5,2.43,3.46,2.05,8.34,0,12s-5.54,6.38-9.13,8.62c-15.43,9.64-34.13,12.51-50.54,20.37a90.62,90.62,0,0,0-28.87,21.87C3901.65,3206.54,3900.81,3185.23,3901.74,3182.05Z"/><path class="cls-37" d="M4260.91,3169.5c3.47-.31,7.2-1.46,9.06-4.41,2.44-3.87.57-9-2.14-12.73-7-9.48-18.48-14.3-29.56-18.28s-22.31-7.53-34-8.81c-6.89-.75-14-.67-20.6,1.45s-12.69,6.45-15.86,12.62a12.33,12.33,0,0,0-1.57,6.36c.36,5.15,5.15,8.79,9.8,11,14.22,6.82,29.53,6.36,44.88,6.07C4234.76,3162.54,4247.14,3170.75,4260.91,3169.5Z"/><path class="cls-2" d="M3778,3516.3c-91.47,88.93-169.77,192.65-221.41,309.3s-75.87,246.67-60.12,373.27c5.68,45.7,16.89,91.7,41.66,130.53,19.92,31.23,47.73,56.49,75.5,81,99.66,87.93,209.81,174.38,340.92,196.14A454.41,454.41,0,0,1,4020,4385.91c-101.17-72.73-226.57-101.28-348.22-128.19a2127.69,2127.69,0,0,0,103-482.83c3.3-35.14,5.36-72.38-10.55-103.88s-56.27-53.37-87.56-37.05"/><path class="cls-2" d="M4666.8,4021c-73.94-63.93-128.62-148.15-166.39-238.32-19.05-45.49-34.17-93.64-34-143s17.35-100.26,54.28-132.95c3-2.66,10.31-1.79,7.93,1.44"/><path class="cls-2" d="M4701.08,4021.23C4645.16,4038,4592,4062.91,4540.27,4090c-36.68,19.22-74,40.64-98.06,74.34-2,2.76.65,8.73,2.14,5.68"/><path class="cls-2" d="M4444.13,4159.05c-7.37,17.52-4.7,37.48-1.18,56.15A739.22,739.22,0,0,0,4473,4326.46c2.9,8.14,6.57,17,14.31,20.8,76.86-11.06,153.43-48.48,219.55-89.2,41.06-25.29,81.91-52.78,111.75-90.66s47.48-88.15,36.09-135c-49.8-204.88-168.55-394-330.2-529.39"/><path class="cls-38" d="M4466.42,3460.69a535.75,535.75,0,0,1,56.89,39.87"/><path class="cls-2" d="M3740.13,3554.58a231.62,231.62,0,0,1,75.6-62.69"/><path class="cls-8" d="M3969,4542.92a63.84,63.84,0,0,0,41.28-5.5c8,18.56,23.92,32.5,40.73,43.71,41.46,27.62,90.1,41.79,139.24,47.5,30.31,3.52,123.48,19.65,135-16.95a14,14,0,0,0,.57-8c-1.3-4.4-5.77-7-9.94-8.9-32.23-15-68.25-19.22-103.56-23.25"/><path class="cls-8" d="M4222.71,4511.85c6.39-1.72,13.13-1.5,19.72-.94a196.86,196.86,0,0,1,82.83,26.36c7.89,4.64,15.91,10.4,19,19,2.74,7.61,1.05,16.24-2.7,23.4s-9.37,13.14-14.92,19"/><path class="cls-8" d="M4245.88,4456.59c10.48-2.9,21.59.32,31.92,3.73q31.24,10.29,61.57,23.12c11.15,4.71,23.39,11,26.82,22.6,1.53,5.21,1,10.85-.49,16.08A46.06,46.06,0,0,1,4348,4547"/><path class="cls-8" d="M4023.54,4392.23c3.5,3.54,9.38,3.47,14,1.52s8.33-5.38,12.49-8.12c11.7-7.7,26.19-9.59,40.13-10.94,49.48-4.8,100.11-5.21,148.09,7.76s93.41,40.52,120.27,82.34c3.86,6,7.4,13.47,4.51,20"/><path class="cls-8" d="M4462,4272.57c-19.66,5.64-40.56,12.08-53.52,27.9-8.56,10.46-12.65,23.92-20.58,34.87-15,20.72-41.56,29.56-66.87,33.38a260.34,260.34,0,0,1-154.27-24.45c-17.34-8.68-36-24-32.74-43.17.44-2.61,4.15-5.37,5-2.85,35.9-3,72.85-5.33,107.63,4"/><path class="cls-8" d="M4139.83,4289c-6.92-8.47-14.25-19.55-9.69-29.49,4.67-10.19,18.31-11.65,29.52-11.43a874.78,874.78,0,0,1,89.33,6.32"/><path class="cls-8" d="M4141,4239.17c-5.34-14.55,6.15-30.91,20.58-36.55s30.59-3.52,45.92-1.3l54.82,7.92"/><path class="cls-8" d="M4436.8,4177c-7.23,1.8-14.68-2.29-20-7.46s-9.53-11.56-15.39-16.15c-12.66-9.94-30.38-9.63-46.38-7.81-31.69,3.6-63.08,11.27-95,10.92-16.69-.18-33.61-2.55-49.93,1s-32.46,15-35,31.45"/><path class="cls-8" d="M4261.44,4144c-17.19-.44-30.57-20.84-24.06-36.75s30.47-21,42.86-9.1"/><path class="cls-8" d="M4275.28,4143.54A1921.93,1921.93,0,0,1,4413,3742.85c7.69-16.26,21.78-35.36,39-30.11,7.33,2.24,12.67,8.68,16.1,15.54,5.72,11.44,7.29,24.49,7.8,37.28,3.21,81-32.05,157.9-66.53,231.22l-64.84,137.88"/><path class="cls-8" d="M4425,3790.2c-14.42,23.82-29.23,53-17.18,78.08,24.19-18.86,37-51.32,32.16-81.61-7.31-1.42-15.25,4-16.53,11.37"/><path class="cls-39" d="M4001.65,5204.58a123,123,0,0,1-87.92-4.25c-1.25-.56-2.35-2.67-1-2.83l.54-1.41q98-294.3,217.76-580.74s40,10.88,55.48,12.82l-1.81,6.18q-99.26,271.72-188.27,547c-1.3,4,1.07,8.18,2.34,12.21s.45,9.78-3.71,10.56-3.5-8.41-.19-5.78"/><path class="cls-2" d="M3697.8,4481c-16,25.57-28.81,53.49-34.1,83.17a176.58,176.58,0,0,0,0,61.48c9.67,5.89,12,7.69,22.18,12.75,61.63,30.83,134.06,28.63,202.77,23.37s139.73-12.61,205,9.49"/><path class="cls-6" d="M4175.06,4682c50.95-.72,102.55-1.65,151.64-15.19,48.84-13.47,93.36-38.92,140.66-57s100.74-28.58,148.27-11.11"/><path class="cls-6" d="M3741.22,4659.56a2113.2,2113.2,0,0,0,17.27,244"/><path class="cls-6" d="M4171.17,4913.52A1037,1037,0,0,1,4208.65,4763c.78-2.35,3.78-5.07,5.05-2.95,25.76,43.1,26.63,100.3,16.64,149.5"/><path class="cls-6" d="M4699.12,4707.88a396.61,396.61,0,0,1-53.32,219.78"/><ellipse class="cls-40" cx="5780.92" cy="5554.69" rx="122.3" ry="757.58" transform="translate(134.05 11245.6) rotate(-89.08)"/><path class="cls-41" d="M6533.17,5554.69s126.68,358.85-90.49,374.8-681.76,13.41-681.76,13.41h30s-464.58,2.54-681.76-13.41-90.49-374.8-90.49-374.8"/><path class="cls-42" d="M5120.81,5597.33c1.38-26.52,24.53-47,48.7-58,7.81-3.57,16.58-6.54,24.86-4.26s14.89,12,11,19.64a106.12,106.12,0,0,1,65-55.32c6.11-1.8,12.79-3,18.77-.81s10.67,8.95,8.57,15a74.69,74.69,0,0,1,43.29-39.4c11.58-4,28.56-1.9,30.47,10.19a114,114,0,0,1,65.74-70.61c18.36-7.26,40.73-9,56.65,2.64,21.28-34,63.35-53.76,103.12-48.36,4.35.59,8.88,1.44,13.07.09,3.33-1.07,6.07-3.43,8.78-5.66A189.93,189.93,0,0,1,5693,5325c19.78-5,44.78-4.76,55.83,12.39,13.64-22.4,34.89-41,60.32-47.37s54.89,1.11,71.25,21.6c2.78-18.69,25.17-30,43.48-25.26s31.58,21.37,37.55,39.31c4.43-15.76,25.52-22.56,40.22-15.36s22.47,24.46,22.44,40.83c17.94-10,42.89-16.09,63.22-13.27,27.74,3.86,48.67,34.24,42.37,61.53,17.84-14.82,46.56-11.35,63.51,4.48s22.88,41,19.48,64c17.79-13.13,43.75-13.95,62.34-2s28.57,35.95,24,57.58c15.09-9.88,34.47-14.93,51.45-8.83s29.4,25.61,23.72,42.73c12.39-13.58,37.13-8.33,47.43,6.89s8.69,35.92,1.59,52.88c-17.92,12.12-40,9.25-61.32,12.69a3569.48,3569.48,0,0,1-1203.54-12.19C5143.26,5614.87,5129,5610.22,5120.81,5597.33Z"/><circle class="cls-43" cx="5578.03" cy="5402.24" r="11.19"/><circle class="cls-43" cx="5903.19" cy="5359.02" r="11.19"/><circle class="cls-43" cx="5758.79" cy="5413.42" r="11.19"/><circle class="cls-43" cx="6047.21" cy="5488.73" r="11.19"/><rect class="cls-44" x="5821.18" y="5341.31" width="17.52" height="64.12" transform="translate(-1905.62 3634.87) rotate(-30)"/><rect class="cls-44" x="5918.04" y="5480.2" width="17.52" height="64.12" transform="translate(-1962.09 3701.9) rotate(-30)"/><rect class="cls-44" x="5625.48" y="5435.71" width="17.52" height="64.12" transform="translate(-1979.04 3549.66) rotate(-30)"/><path class="cls-45" d="M4836.49,6464l2060.44,82.06s492.38-324.64,448.93-369.89-1940.52-35.59-1940.52-35.59S4784.15,6435.08,4836.49,6464Z"/><path class="cls-2" d="M4836.49,6464s63.42,209.37,393.87,499.76l1514.53,17.52s535.72-255.34,615.83-788.56"/><path class="cls-2" d="M6896.93,6546.1s85.78,29.68-152,435.22"/><path class="cls-8" d="M6764.09,6491.21s150.93-17,282.38-253.17c0,0-433.31,117.28-567.19,104.89S6204.2,6238,6204.2,6238s-679.17-136.32-959.12,56c0,0-165.66,156.57,258,185s1002.93-77.9,1002.93-77.9S6703.23,6410.87,6764.09,6491.21Z"/><ellipse class="cls-37" cx="5429.61" cy="6288.37" rx="32.23" ry="29.05" transform="translate(-1933.48 2440.09) rotate(-21.6)"/><path class="cls-37" d="M5225.59,6319.33s23.51,36,96.39,21.86"/><path class="cls-46" d="M5474,6477.63s160.36-52.26,159.18-202.24"/><line class="cls-37" x1="5666.04" y1="6365.14" x2="5852.63" y2="6235.24"/><line class="cls-37" x1="5805.39" y1="6382.86" x2="5986.07" y2="6235.24"/><line class="cls-37" x1="5949.47" y1="6382.86" x2="6114.8" y2="6250.59"/><line class="cls-37" x1="6114.8" y1="6387.58" x2="6234.07" y2="6282.48"/><line class="cls-47" x1="4882.7" y1="6535.26" x2="5412.45" y2="6561.75"/><line class="cls-47" x1="4926.23" y1="6618.03" x2="5652.49" y2="6627.97"/><line class="cls-47" x1="5429.61" y1="6675.97" x2="6390.83" y2="6690.87"/><line class="cls-47" x1="5031.69" y1="6737.23" x2="5775.92" y2="6743.85"/><line class="cls-47" x1="5385.96" y1="6776.96" x2="6223.63" y2="6798.48"/><line class="cls-47" x1="5112.81" y1="6836.56" x2="5707.12" y2="6844.83"/><line class="cls-47" x1="5225.59" y1="6881.25" x2="5601.17" y2="6881.25"/><line class="cls-47" x1="5306.5" y1="6934.23" x2="5501.85" y2="6934.23"/><line class="cls-47" x1="5564.75" y1="6909.4" x2="6098.6" y2="6909.4"/><line class="cls-47" x1="5967.03" y1="6844.83" x2="6496.78" y2="6844.83"/><line class="cls-47" x1="6155.76" y1="6881.25" x2="6791.46" y2="6881.25"/><line class="cls-47" x1="6324.61" y1="6934.23" x2="6761.66" y2="6934.23"/><line class="cls-47" x1="6069.67" y1="6743.85" x2="6862.64" y2="6756.87"/><line class="cls-47" x1="6367.66" y1="6715.71" x2="6806.35" y2="6722.33"/><line class="cls-47" x1="5813.07" y1="6640.57" x2="6193.83" y2="6647.83"/><line class="cls-47" x1="5895.73" y1="6599.82" x2="6862.64" y2="6632.93"/><path class="cls-47" d="M7337.44,6264.77S7233.16,6476.15,7010,6560.52"/><path class="cls-47" d="M6912,6642.29s158.4-17.4,275.83-121.78"/><path class="cls-47" d="M7093,6703.18s-77.41,57.83-170.49,47.18"/><path class="cls-47" d="M6985.15,6783.2s-33.23,21.75-73.15,13.92"/><path class="cls-47" d="M6806.35,6884.55s54.21,1.47,76.23-7.34"/><polyline class="cls-48" points="1914.85 13.45 1914.85 2794.3 3836.9 2794.3"/><polyline class="cls-49" points="1996.04 12.18 1996.04 2714.3 3918.1 2714.3"/><line class="cls-49" x1="5836.63" y1="2714.3" x2="7417.45" y2="2714.3"/><line class="cls-50" x1="5945.14" y1="2794.3" x2="7417.45" y2="2794.3"/><path class="cls-51" d="M3241.43,2448.19H2697.28s-110.32,333.5,275.17,333.5h-10.94c385.48,0,275.16-333.5,275.16-333.5H2692.52"/><path class="cls-52" d="M2043.57,2675.19h866.25q-17,53.25-33.94,106.5H2075.27Q2059.43,2728.44,2043.57,2675.19Z"/><path class="cls-53" d="M2144.67,2512.84l244.18,132.64a177.68,177.68,0,0,0,168.05.85l251.82-133.49Z"/><line class="cls-54" x1="2476.69" y1="2512.84" x2="2476.69" y2="1327.26"/><path class="cls-55" d="M2607.1,1298.25c141.79-47.22,77.78,167.41-36.58,131.29C2415.26,1385.76,2515.58,1332.75,2607.1,1298.25Z"/><path class="cls-55" d="M2344.38,1298.25c-141.79-47.22-77.79,167.41,36.58,131.29C2536.22,1385.76,2435.9,1332.75,2344.38,1298.25Z"/><path class="cls-55" d="M2607.1,1603.51c141.79-47.22,77.78,167.41-36.58,131.29C2415.26,1691,2515.58,1638,2607.1,1603.51Z"/><path class="cls-55" d="M2344.38,1603.51c-141.79-47.22-77.79,167.41,36.58,131.29C2536.22,1691,2435.9,1638,2344.38,1603.51Z"/><path class="cls-55" d="M2607.1,1908.77c141.79-47.22,77.78,167.41-36.58,131.3C2415.26,1996.29,2515.58,1943.28,2607.1,1908.77Z"/><path class="cls-55" d="M2344.38,1908.77c-141.79-47.22-77.79,167.41,36.58,131.3C2536.22,1996.29,2435.9,1943.28,2344.38,1908.77Z"/><path class="cls-55" d="M2607.1,2214c141.79-47.22,77.78,167.41-36.58,131.3C2415.26,2301.55,2515.58,2248.54,2607.1,2214Z"/><path class="cls-55" d="M2344.38,2214c-141.79-47.22-77.79,167.41,36.58,131.3C2536.22,2301.55,2435.9,2248.54,2344.38,2214Z"/><path class="cls-56" d="M2956.41,1073.82h0c10.22,0,18.45,11.11,18.27,24.65l-18.27,1340.39-18.27-1340.39C2938,1084.93,2946.19,1073.82,2956.41,1073.82Z"/><path class="cls-57" d="M3055.86,1255.42h0c8,0,14.52,9.63,14.37,21.37l-14.37,1162.07-14.38-1162.07C3041.33,1265.05,3047.81,1255.42,3055.86,1255.42Z"/><path class="cls-58" d="M3155.85,1457.44h0c5.56,0,10,8,9.94,17.72l-9.94,963.7-9.94-963.7C3145.8,1465.42,3150.29,1457.44,3155.85,1457.44Z"/><path class="cls-59" d="M2773.62,1493.76h0c5.56,0,10,7.64,9.94,17l-9.94,922.5-9.94-922.5C2763.58,1501.4,2768.06,1493.76,2773.62,1493.76Z"/><path class="cls-60" d="M2864.74,1364.38h0c8,0,14.52,8.74,14.38,19.4l-14.38,1055.08-14.38-1055.08C2850.22,1373.12,2856.7,1364.38,2864.74,1364.38Z"/><path class="cls-8" d="M6551,8V451.32"/><path class="cls-8" d="M6550.9,1685.54v133.2"/><path class="cls-61" d="M6575.65,1864.71l-62.38,287.48"/><path class="cls-62" d="M6539.56,1864.71l-71.2,328.11"/><ellipse class="cls-8" cx="6551.08" cy="1063.7" rx="628.07" ry="463.01"/><line class="cls-8" x1="6156.07" y1="706.28" x2="6946.4" y2="706.28"/><line class="cls-8" x1="6027.12" y1="810.12" x2="7074.78" y2="810.12"/><line class="cls-8" x1="5958.66" y1="913.96" x2="7144.52" y2="913.96"/><line class="cls-8" x1="5932.12" y1="1017.8" x2="7172.52" y2="1017.8"/><line class="cls-8" x1="6944.57" y1="1423.12" x2="6154.23" y2="1423.12"/><line class="cls-8" x1="7079.5" y1="1311.65" x2="6022.29" y2="1311.65"/><line class="cls-8" x1="7145.36" y1="1205.02" x2="5953.97" y2="1205.02"/><line class="cls-8" x1="7168.52" y1="1121.64" x2="5929.63" y2="1121.64"/><polyline class="cls-8" points="6791.98 635.75 6724.82 451.32 6550.6 451.32 6552.32 451.32 6378.1 451.32 6310.94 635.75"/><polyline class="cls-8" points="6791.98 1493.03 6724.82 1677.45 6550.6 1677.45 6552.32 1677.45 6378.1 1677.45 6310.94 1493.03"/><circle class="cls-29" cx="6550.74" cy="1850.81" r="42.38"/></g></g></svg>