<svg xmlns="http://www.w3.org/2000/svg" viewBox="0 0 7390.4 5905.24"><defs><style>.cls-1,.cls-10,.cls-11,.cls-12,.cls-13,.cls-14,.cls-15,.cls-16,.cls-17,.cls-18,.cls-19,.cls-2,.cls-20,.cls-21,.cls-22,.cls-23,.cls-24,.cls-25,.cls-26,.cls-27,.cls-28,.cls-3,.cls-31,.cls-32,.cls-33,.cls-34,.cls-35,.cls-36,.cls-37,.cls-39,.cls-4,.cls-40,.cls-5,.cls-6,.cls-7,.cls-8,.cls-9{fill:none;}.cls-1,.cls-10,.cls-11,.cls-12,.cls-13,.cls-14,.cls-15,.cls-16,.cls-17,.cls-18,.cls-19,.cls-2,.cls-20,.cls-21,.cls-22,.cls-23,.cls-24,.cls-25,.cls-26,.cls-27,.cls-28,.cls-29,.cls-3,.cls-30,.cls-31,.cls-32,.cls-33,.cls-34,.cls-35,.cls-36,.cls-37,.cls-38,.cls-39,.cls-4,.cls-40,.cls-41,.cls-5,.cls-6,.cls-7,.cls-8,.cls-9{stroke:#000;stroke-linecap:round;stroke-linejoin:round;}.cls-1{stroke-width:30px;}.cls-2,.cls-41{stroke-width:20px;}.cls-3{stroke-width:19.35px;}.cls-4{stroke-width:20.67px;}.cls-5{stroke-width:20.22px;}.cls-6{stroke-width:20.06px;}.cls-7{stroke-width:20.3px;}.cls-38,.cls-8{stroke-width:16px;}.cls-29,.cls-9{stroke-width:14px;}.cls-10{stroke-width:20.19px;}.cls-11{stroke-width:19.47px;}.cls-12{stroke-width:21.63px;}.cls-13{stroke-width:19.59px;}.cls-14{stroke-width:19.6px;}.cls-15{stroke-width:19.48px;}.cls-16{stroke-width:19.2px;}.cls-17{stroke-width:19.53px;}.cls-18{stroke-width:20.03px;}.cls-19{stroke-width:10px;}.cls-20{stroke-width:60px;}.cls-21{stroke-width:20.75px;}.cls-22{stroke-width:19.93px;}.cls-23{stroke-width:21.12px;}.cls-24{stroke-width:22.22px;}.cls-25{stroke-width:20.11px;}.cls-26{stroke-width:20.46px;}.cls-27{stroke-width:21.84px;}.cls-28{stroke-width:20.77px;}.cls-29,.cls-30,.cls-38,.cls-41{fill:#fff;}.cls-30,.cls-31{stroke-width:13.87px;}.cls-32{stroke-width:20.12px;}.cls-33{stroke-width:20.1px;}.cls-34{stroke-width:20.4px;}.cls-35{stroke-width:9.21px;}.cls-36{stroke-width:12px;}.cls-37{stroke-width:18.6px;}.cls-39{stroke-width:25px;}.cls-40{stroke-width:25.24px;}</style></defs><g id="Layer_2" data-name="Layer 2"><g id="Table"><path class="cls-1" d="M15,4033.46H190"/><line class="cls-1" x1="3182.93" y1="4055.42" x2="4019.95" y2="4055.42"/><line class="cls-1" x1="4092.24" y1="4057.69" x2="4973.68" y2="4066.5"/><path class="cls-1" d="M6472.9,4066.5h902.5"/></g><g id="Dad"><path class="cls-2" d="M5314.26,1608.5c15.59,62.31,84.66,92.4,145.27,113.65l244.18,85.6c120.89,42.38,252.3,93.37,313.75,205.77,26.78,49,37.19,105,47.22,159.91q55.6,304.47,111.23,608.92c71.6,392,143.42,786,151.71,1184.44,2.45,117.93-2.38,242.19-63.22,343.25-49.87,82.83-136.26,142.75-231.31,160.44"/><path class="cls-2" d="M5795.58,3897.49A4371.19,4371.19,0,0,1,5491.06,2714.9"/><path class="cls-2" d="M5487.27,2617.63a1283.9,1283.9,0,0,1,4.56-252.76c11.68-99.58,36.28-200.47,94.11-282.39s154.09-141.9,254.12-135"/><path class="cls-2" d="M5747.6,4448c-195-37.71-377.14-126.92-542.18-237.42S4890.89,3968.23,4742,3836.81c-61.5-1.73-111.18-2.79-172.38-9.1-2-.2-4.48-.92-4.61-2.9s4.11-.8,2.44.27"/><path class="cls-2" d="M4568.55,3819.83a1827.86,1827.86,0,0,1,394.27-425.67c44.33,32.9,76,73.34,102.35,121.85"/><path class="cls-3" d="M5056.47,3511.66A2101.51,2101.51,0,0,1,4739,3836.73"/><path class="cls-2" d="M5062.38,3520.7q366.93,171.23,715.78,378.1c79,46.86,158,95.66,223.07,160.47"/><path class="cls-2" d="M5801.15,3898.8A551.18,551.18,0,0,1,6014.63,3815c20-3.31,42.38-4.95,58.58,7.19"/><path class="cls-4" d="M5555.05,3766.06a1318.24,1318.24,0,0,1,55.59-415.48"/><path class="cls-3" d="M5318,1599.87c-65.13,1-128.7,19.28-190.56,39.7a2621.51,2621.51,0,0,0-426.24,184"/><path class="cls-3" d="M5356.13,1689.63a1175.87,1175.87,0,0,1-513.65,213.72"/><path class="cls-3" d="M4775.62,1784.49a1104.09,1104.09,0,0,1,70.67,115.61"/><path class="cls-5" d="M4753.57,1786.73a1537.4,1537.4,0,0,0,28.72-290.48"/><path class="cls-3" d="M4633.44,808.49A1612.23,1612.23,0,0,0,4572,1337.36c.91,18,2.35,36.69,11.43,52.24,15.44,26.44,28.74,48.91,50.6,70.33s50.52,37.58,81.13,38.19c74.12,1.49,141.2-16.32,213.05-34.55"/><path class="cls-3" d="M5209.86,1089.45l-20,158.07c-4.34,34.23-9.51,70.48-31.48,97.09-17.84,21.6-44.33,33.79-69.89,45.27l-58.51,26.3"/><path class="cls-3" d="M4631.54,803.08c-13.52-31.48-27.06-63.28-33.66-96.9-26.69-135.95,106.54-275,213.3-338.66,99.51-59.37,217.57-84.69,333.34-79.84,32.22,1.35,67.82,6.73,88.32,31.62-19.66,21-19.72,54.66-25.69,82.78-4.59,21.62-8.43,43.91-5,65.74,3.13,19.83,12.15,38.27,22.64,55.39a327.24,327.24,0,0,0,109.7,108.89c-31.24,76.74-63.93,161-51.16,242.84,15.49,5.21,22.16,8.32,37.65,13.53,13.39-82.7,52-154.91,114.38-210.81,24.6-22,53.59-41.32,86.38-45.34s69.62,11,82.58,41.38c6.08,14.26,6.49,30.39,4.33,45.75-6.77,48.1-37,89.63-70.71,124.62s-71.89,66-100.9,104.91-48.34,88.91-36.88,136.11"/><path class="cls-3" d="M4608,579.76A397.88,397.88,0,0,1,4459,416.18c-14.56-29.76-25.52-63.19-19.23-95.72,10.12-52.34,63.36-87.47,116.26-94.07s105.75,9.05,156.76,24.52c-43.92,2.71-83.9-37.26-87-81.15s26.26-86.42,66.07-105.16S4779.49,48.84,4820,66s74.34,47.42,102.28,81.41c134.89-106,313.9-161.75,482.09-127.88s318.46,165.66,353.15,333.68c12.64,61.19-5.49,131.44-22.92,191.44a1347.12,1347.12,0,0,1-317.85,551.9"/><path class="cls-3" d="M5323.7,1615c-55.48-76-61.92-179.16-39-270.41s71.77-173.49,120.16-254.17c2.24-3.73,8.92-6.86,9.56-2.55"/><path class="cls-3" d="M4921.83,1000.73c4-5.45,9.24-11.9,15.85-10.58,12.95,21.91,13.51,50.35,2.44,73.27s-33.13,39.94-57.85,46c-9.48,2.32-19.88,3-28.63-1.3-28.52-14-23.13-41.11-.08-53.14C4880.38,1041,4903.72,1025.66,4921.83,1000.73Z"/><path class="cls-3" d="M4733.68,978.25c-21.15,4-44-11.51-48.2-32.63s11.08-44.14,32.15-48.52c4.29-.89,8.81-1.13,12.68-3.18,4.48-2.38,7.42-6.84,10-11.19a259.52,259.52,0,0,0,36.92-135.07"/><path class="cls-3" d="M4634.47,790.09h-2.55c29.47-21.69,67.76-31.09,104.14-27.25,2,.21,4.7,1.44,4,3.36"/><path class="cls-3" d="M4900.77,778c40.18-31.23,96.23-40.79,144.49-24.67"/><path class="cls-3" d="M4609.74,719.3c8.14-5.85,18.45-7.49,28.31-9.3a557.52,557.52,0,0,0,59.18-14.52c12.49-3.74,25.59-8.29,33.87-18.36s9-27.42-1.84-34.66c-7.33-4.9-17-3.71-25.64-2A356.38,356.38,0,0,0,4640,659.26c-15.83,6.34-32.51,15.16-38.87,31"/><path class="cls-3" d="M5051.35,694c12.29,1,27.48-.37,32.64-11.57,3.59-7.81.2-17.41-5.84-23.52s-14.25-9.5-22.21-12.74c-21.56-8.77-43.37-17.62-66.39-21.08-16.78-2.53-33.85-2.13-50.82-1.66-21.12.6-39.41,5.52-43.12,28.91-2.74,17.26.91,32.6,19.06,34.89,19.32,2.44,40.63-4.25,60.53-2.79C5000.73,686.32,5025.84,691.87,5051.35,694Z"/><path class="cls-3" d="M4961.69,2615.88a1816.89,1816.89,0,0,0,340.29,9.71"/><path class="cls-3" d="M4946.94,3418.38c-28.19-13.7-45.8-42-61.9-68.89l-48.55-81.08"/><path class="cls-3" d="M4130.39,3387.9a770.9,770.9,0,0,1-208.12-178.31c-16.33-20.05-29.71-54.08-7.71-67.66,14.16-8.74,32.34-.6,46.87,7.53l191,106.84a704.59,704.59,0,0,1-206.26-165.85c-10-11.74-19.85-24.42-23-39.49s2.4-33.1,16.43-39.46c11.05-5,24-1.74,35.46,2.16,76,25.76,141.12,75.4,204.76,124.21a1398.16,1398.16,0,0,1-187-156.56c-15.89-15.86-32.62-38.19-23.26-58.6,12-26.18,50.85-19.4,77-7.26a962.16,962.16,0,0,1,186.15,113.78,658.64,658.64,0,0,1-154.79-127.4c-13.81-15.45-27.66-36.73-18.63-55.39,6.07-12.56,20.71-18.63,34.56-20.38,45.6-5.74,87.58,23.13,124.46,50.55l136.19,101.27"/><path class="cls-3" d="M5560.11,695.29c-10.29-14.46-31.41-17.78-48.16-11.92s-29.91,18.91-41.47,32.38a371.31,371.31,0,0,0-74.25,137c5.91-.4,10.26,5.41,12.57,10.87a62.06,62.06,0,0,1-1.37,50.78"/><path class="cls-3" d="M4400.16,1807.59c55.59-35.33,112.53-68.92,172.91-95.25s124.43-45.35,190.1-50.49"/><path class="cls-3" d="M4656.16,3678.76c-47.49-34.77-96.32-70.2-153-86.17-22.9-6.45-46.65-9.58-69.5-16.22a235.39,235.39,0,0,1-103.21-62.32"/><path class="cls-6" d="M3787.46,2898.37c22,1.58,44.95,3.42,64,14.56s32.94,34.56,25.8,55.47c-6.36,18.63-27.23,29.11-46.92,29.51s-38.55-7.15-56.78-14.58"/><path class="cls-6" d="M3769.2,3022.12q16.56.83,33.06,2.54c23.59,2.44,49.27,7.45,64.28,25.82,6.74,8.25,10.51,20.56,4.65,29.45-3.16,4.77-8.48,7.62-13.74,9.9a124.12,124.12,0,0,1-97.24.11"/><path class="cls-7" d="M3743.35,3123.74c32.55.24,65,8.92,92.19,24.68,6.79,3.93,13.42,8.45,17.58,14.61s5.37,14.29,1.2,20.45c-3.24,4.8-9.1,7.66-14.72,10.24-17.08,7.87-34.89,15.37-54,17.21s-40.13-2.92-52.42-16"/><path class="cls-6" d="M3728.52,3235.89a296.32,296.32,0,0,1,79.4,20.87c8.76,3.66,18.12,8.57,21.43,17.46s-.79,19.09-7.63,25.57-16,9.91-24.93,12.81a337.12,337.12,0,0,1-39.09,10.09,150.65,150.65,0,0,1-22.46,3,98,98,0,0,1-32.61-4.13"/></g><g id="Grandma"><path class="cls-7" d="M864.06,2445.75c-312.37,100.09-546.61,379.74-647.09,692s-80.72,652.71-4.51,971.75c11,46.2,28.62,98.47,72.92,115.59,107.43,41.52,204.57,86.84,318.53,103.56"/><path class="cls-7" d="M1706.54,4418.4a216.17,216.17,0,0,0,32-40.56c19-31.09,29.82-66.46,38.4-101.89a948.81,948.81,0,0,0,26.2-249.35c-108.37-8.31-220.87-18.56-325.55-47.85-76.59-21.43-154-49.05-233.3-43.14-5.63.42-9.4,10.82-4.34,8.31"/><path class="cls-7" d="M860.19,3893.41c-142.31-11.47-288.1,25.72-407.53,104-7.72,5-15.86,11-18.42,19.85"/><path class="cls-7" d="M612.64,3910.94a628.41,628.41,0,0,0-250.18-36.6"/><path class="cls-7" d="M513.41,2651.32c55-17.59,112.73,21.73,147.09,68.15,70,94.54,83.66,218.63,86.06,336.21,5.85,286.71-41,571.59-87.66,854.53"/><path class="cls-7" d="M717.39,3564.3a1731.34,1731.34,0,0,0,261.81-719c97.9,7.14,202,3.54,299.87-3.6l469.21-34.2c55.13,232.17,166.53,443.09,323.64,622.7"/><path class="cls-7" d="M1640.3,2796.73A859,859,0,0,1,1626.47,2457c4.15-25.87,13.81-56.36,39.22-62.76,23.11-5.82,46.31,13.83,53.69,36.5s3.42,47.22.52,70.88a743.66,743.66,0,0,0,31.42,320.88"/><path class="cls-7" d="M981,2834.43c23-131.59-13.18-272.42-96.85-376.57-11.07-13.78-23.73-30.18-19.07-47.24,3.42-12.46,15.61-20.85,28.16-23.95a59.3,59.3,0,0,1,38.9,3.79c15.09,7,26.41,20.05,37.12,32.8,16.52,19.67,32.79,39.69,46,61.73,36.42,60.85,47.25,133.19,56.33,203.52,6.4,49.57,12.25,100.33,1.58,149.17"/><path class="cls-7" d="M954.86,3025.93a2813,2813,0,0,0,831.24-31.88"/><path class="cls-7" d="M1966.62,3280.89l-43.8-264.45c-5.78-34.92-11.56-70.68-5.18-105.49,4-22,12.81-42.87,22.7-62.94a574.06,574.06,0,0,1,134.93-176.25"/><path class="cls-7" d="M1740.44,2481.45a23.13,23.13,0,0,1-16.91-5.88l377.15,193.07c30.5,15.62,61.72,31.77,84.73,57.17,28.81,31.8,41.64,74.53,53.64,115.73,53.52,183.77,102.89,366,116.58,556.89"/><path class="cls-7" d="M1700.94,4419.78c-8.71-13.66-24.35-21.07-39.47-26.9a424.27,424.27,0,0,0-225.15-21.78"/><path class="cls-8" d="M1811.18,4024.89c56.63,30,125.66,19.3,187.63,3,27-7.09,55.61-15.11,82.17-6.62,23.18,7.4,41.15,26.41,64.1,34.51,45.22,16,100.58-13.05,141.14,12.53,23.75,15,34.22,45.26,32.92,73.32"/><path class="cls-8" d="M2261.51,4144.58c-11.09-11.39-27.43-16.43-43.31-17s-31.59,3-47.09,6.47c72.11,52.64,156.88,87.28,224.25,145.87,8.08,7,16.62,17.09,13,27.15-2,5.62-7.38,9.28-12.7,12-33.82,17.32-78.8,9.09-104.28-19.1"/><path class="cls-8" d="M2289.7,4304.29l-157.62,129.86c-24.25,20-49,40.26-78.24,51.78-34.62-25.11-66.64-44.41-101.27-69.53-31.23-22.66-63-45.78-86.33-76.48-7.14-9.36-13.52-19.45-22.3-27.29-15.63-13.94-37-19.16-57.35-23.91"/><path class="cls-8" d="M1580.29,2427.68c-53.58,83.28-140.58,144.38-237.1,166.52s-201.44,5.08-286-46.52"/><path class="cls-8" d="M1023,2480.86c81,39.34,166.58,79.64,256.49,74.48,109.22-6.26,203.74-78.93,275.71-161.32"/><path class="cls-9" d="M1323.63,2560.26c-3-2.81-8.17-2.05-11.26.68s-4.52,6.87-5.39,10.9a23.81,23.81,0,0,0-.56,8.81,11.12,11.12,0,0,0,4.35,7.46,12,12,0,0,0,7.7,1.71,18.57,18.57,0,0,0,16.25-13.44c1.06-4.15.38-9-2.6-12a12.7,12.7,0,0,0-5-3,17.78,17.78,0,0,0-9.48-.64"/><path class="cls-9" d="M1298.38,2574.78a111.64,111.64,0,0,1-46,.68"/><path class="cls-2" d="M880.38,1833.53c-37.73-23.59-89.06-46.59-123-17.81-31.08,26.37-22.1,76.11-6.93,113.94,20.06,50,55.48,103.83,109.29,106.82-27.82,21.72-36.17,61.56-29.33,96.18s26.24,65.28,45.82,94.64c33.09,49.64,70.44,100.46,125,124.51,33.19,14.62,70.34,18.12,103.91,31.86,73.5,30.08,131.62,108.65,210.73,101.56,26.77-2.4,51.45-14.87,75.37-27.12l125.44-64.19c-2.07-6.83,7.64-8.93,13.06-13.57L1681.94,2250c9.58-32,18.17-78.61,27.76-110.58,38-126.69,76.32-256.12,72.06-388.31"/><path class="cls-2" d="M882.74,1823.55c73.66-56.36,118.16-143.62,143.07-233,66.24,13.63,135.42-10.41,188.59-52.19s91.2-100,121-160.7c20.63,39.36,64.88,53.08,106.63,68.3,18.73,6.82,37.51,13.67,56.89,18.31,68.16,16.34,142.75,3.83,201.84-33.86l3-1.91c-5.6,40.78-3.81,79.46-.34,120.47,6,71,38.53,136.56,70.51,200.18"/><path class="cls-10" d="M747.89,1814.82c-24.29-22.72-35.35-56.67-35.54-89.6s9.46-65.19,21.48-95.93c58.85-150.49,177.94-276.31,323.94-350.1s317.37-96,479-67.62c35.37,6.2,70.76,14.92,102.26,31.86s59,42.73,73.59,75,15.2,71.37-2.31,102.25"/><path class="cls-10" d="M1711.43,1314.5c35.82,18,63.11,50.18,80.78,86.13s26.43,75.64,32.11,115.3c11.31,79,9.74,164.23-31.61,232.48"/><path class="cls-10" d="M1781.83,1775c7.06-11,22.8-14.36,35-9.52s20.82,16.24,25.24,28.57c9.3,26,1.74,55.4-12.47,79a109.92,109.92,0,0,1-15.67,20.66,86.26,86.26,0,0,1-37.48,22.24"/><path class="cls-10" d="M1056.62,1259c7.49-53.59-25.55-104.75-64.43-142.39-51.73-50.08-123.46-87.68-194.11-73.74-43.94,8.67-81.74,36-115.88,65a961.29,961.29,0,0,0-113.31,113.72c-25.29,30-49,62-63.93,98.32-11.3,27.45-17.34,56.81-21.13,86.26-3.58,27.81-5.17,56.37,1.41,83.62,12,49.65,50.94,90.26,97.39,111.5s99.54,24.7,150.13,17.7"/><path class="cls-7" d="M952.72,2391l7.26-7.28c10.82-10.85,22.2-22.76,24.6-37.9"/><path class="cls-7" d="M1543.67,2391.64a17.64,17.64,0,0,0-5-12"/><path class="cls-8" d="M778,1902.24c-8.55-14.91-1.92-35.77,12.61-44.94s34.53-7.17,48.52,2.81,22.2,26.77,24.18,43.84c-6-1.61-12.55,1.57-16.5,6.4s-5.78,11-7.1,17.11a140.7,140.7,0,0,0-.12,59.21"/><path class="cls-8" d="M1286.81,2075.12c-13.84,6.48-24.07,18.67-33.14,31a423,423,0,0,0-74.25,168.41"/><path class="cls-8" d="M1465.91,2095.79c8.71,72.7-17,144.64-42.25,213.36-.62,1.69-1.39,3.54-3,4.27s-4.08-.78-3.4-2.44"/><path class="cls-8" d="M1272.23,2132.85c36,43.33,92.12,69.19,148.45,68.39-16.69,16.34-41.28,26.09-62.67,35.48-18.14,8-39.38,13-57.48,5-14-6.25-24-19.73-28.61-34.39s-4.43-30.44-2.45-45.68C1270.19,2156.13,1266.69,2133.12,1272.23,2132.85Z"/><path class="cls-8" d="M1402,2058.77a101.94,101.94,0,0,0,65.27-45.76c3.74-6.07,6.86-12.63,8.18-19.64,3.11-16.58-4.12-33.15-10.85-48.62-17.48-40.16-33-83-29.23-126.67"/><path class="cls-8" d="M1541.21,1927.27c-4.35-9.47,4.53-19.72,13.49-25a89.11,89.11,0,0,1,76.8-6.2c16.5,6.48,36.77,1.75,48.7-11.35a1.34,1.34,0,0,0,.34-.81"/><path class="cls-8" d="M1309.75,1905.25a62.08,62.08,0,0,0-2.42-6.65c-5.84-12.88-19.94-20.36-33.93-22.39s-28.18.43-42.2,2.28-28.59,3-42-1.42-25.45-15.86-26.5-30"/><path class="cls-8" d="M1197,1721.57c31.18-21.27,64.77-41,102.09-46.61a7,7,0,0,1,4.37.31c1.57.84,2.27,2.69,2.8,4.4a102.57,102.57,0,0,1,4.53,28.68c0,3.14-.11,6.45-1.76,9.11s-4.58,4.28-7.38,5.73a392.11,392.11,0,0,1-100.4,35.54c-9.22,1.91-36.2,9.1-37.57-4.41C1162.53,1742.67,1189.29,1726.86,1197,1721.57Z"/><path class="cls-8" d="M1577.08,1691.6c-.09-1.13-1.86-.24-2.32.79a234.34,234.34,0,0,0-12.92,37.06c-.94,3.65-1.77,7.59-.4,11.1,28.89,21.55,66.74,29.71,102.53,25.45C1653.41,1727.31,1616.39,1699.53,1577.08,1691.6Z"/></g><g id="Thermal"><path class="cls-11" d="M521.65,5700.94q19.3-518.35,21.44-1037.19c.26-63.9.38-128.31,12.75-190.88,32.22-163,152.95-303.41,304.35-354"/><path class="cls-11" d="M857.59,4168.89q3.76-201.62,13.63-403.06"/><path class="cls-12" d="M1239.85,3753.38q-11.64,211.07-36,421.46"/><path class="cls-11" d="M897.81,3743.73c95.5-49.5,212-56.69,312.84-19.31,13.82,5.12,29.87,15.15,27.84,29.75-1.28,9.22-9.59,15.65-17.48,20.59-46.62,29.18-101.49,42.87-156.21,48.48-41.7,4.27-85.23,3.57-125.43-9.46-19.27-6.24-39-15.38-54.47-28.63C862.84,3766.33,876.58,3754.73,897.81,3743.73Z"/><path class="cls-13" d="M868.18,3990.39c.77-.94-1.56-1.73-2-.61s.44,2.3,1.3,3.15c12.37,12.34,28.16,20.64,43.72,28.72s31.38,16.26,48.06,22.06c42.51,14.77,89.46,13.61,133.33,3.44s85.2-28.93,125.43-49c2.94.76,2.6,6-.41,6.4s-4.69-4.6-2-6.08"/><path class="cls-11" d="M860.86,4167.86c-.57,9.22,7.73,16.27,15.21,21.68A255.36,255.36,0,0,0,898,4204.29c29.94,17.25,65.55,21.57,100.09,22.32a557.16,557.16,0,0,0,108-8.24c35.9-6.29,72.92-17.1,98.68-42.89"/><path class="cls-11" d="M1216.18,4120.55a353,353,0,0,1,157.88,142.17c68,116.15,63.74,259.22,57.48,393.67l-28.86,619.32c-.67,14.6-1.86,30.47-11.67,41.29"/><path class="cls-14" d="M1427,4486.29c-113.18,96.06-261.76,147.68-410.9,154.18s-298.5-30.53-432.48-95.49c-14.37-7-30.3-16.51-32.57-32.16"/><path class="cls-15" d="M1419,4379.41c-62.84,78.37-157.5,128.44-254.88,162.2-67.16,23.28-139.74,27.47-211.22,28.35-140.58,1.72-281.25-46-388.95-131.89l7.79,1"/><path class="cls-15" d="M1400.19,5391.28a2489.23,2489.23,0,0,1-3.67,260.15"/><path class="cls-16" d="M522.09,5700.58c42.88,77.6,114.84,139.6,199.22,171.64,136,51.66,298.67,6.57,440.52-27.22,44-10.47,88.37-23.5,125.24-49.07,50.62-35.11,82.09-90.2,109.45-144.5"/><path class="cls-16" d="M1141.63,5374.36l190.58-308.75L1062.85,4707.3s2.54-6.35-218.54,373.55"/><path class="cls-17" d="M844.31,5080.85l231.25,307.49"/><path class="cls-18" d="M570.63,5140.1,584.84,4762c.58-15.51,1.3-31.58,8.17-45.42s21.74-24.83,36.64-21.87c24.6,4.89,29.19,38.41,28.08,64q-6.74,156.44-13.48,312.88c-.78,18.1-1.55,36.36,1.38,54.23,5.17,31.54,21.48,59.83,37.48,87.31l110.22,189.22c223.75-3.63,454-5.79,656.37-103.33,28.22-13.6,56.25-29.25,77.44-52.66-4.55-10.65-7.67-25-12.25-35.6q-46-106.89-96.9-211.47"/><path class="cls-18" d="M1541.65,5315.65c-219.66,110-465.62,164.61-710.13,157.67-30.61-.86-61.33-2.7-91.31-9.08-66.38-99.69-122.52-209.21-169.58-319.79"/><path class="cls-18" d="M1418.55,4896.71q40.21,75.2,79.31,151c34.36,66.61,68.32,134.22,87.42,206.95-11.92,25.48-29.92,47.83-52.82,63.62"/><path class="cls-19" d="M956.6,5072a237.28,237.28,0,0,0,38.07-63.88"/><path class="cls-19" d="M981.08,5183.73a552.84,552.84,0,0,0,46.81-211.79"/><path class="cls-19" d="M1024.71,5036.47a393.27,393.27,0,0,1,36-47.89c.61-.7,1.54-1.46,2.35-1s-.54,1.94-.72,1"/><path class="cls-19" d="M1011.87,5116.91a70.21,70.21,0,0,1,27,47.79"/><path class="cls-19" d="M1081.15,5102.57a906.56,906.56,0,0,1,.41-132c28.38-.43,55.3-6.29,83.68-6.71,19.31-.28,38.7-.56,57.81,2.17,2.64,42.17,1.26,87.69.52,129.93"/><path class="cls-19" d="M1147.28,4997.58a470.65,470.65,0,0,1-2.66,111.76"/><path class="cls-19" d="M1108.46,5031.15q42.43.56,84.88-.25"/><path class="cls-19" d="M1163.42,5028.44a55.59,55.59,0,0,1,24.44-28.32"/><path class="cls-19" d="M1111.05,5005.82a33.44,33.44,0,0,1,17.11,25.47"/><path class="cls-19" d="M1141.74,5041.47a144.17,144.17,0,0,0-41.11,45.73"/><path class="cls-19" d="M1153.17,5042.94a95.21,95.21,0,0,1,38.28,46.42"/><path class="cls-19" d="M1076.14,5194.25l-1.5-.82c31.26-9.21,57.42-34.2,68-65-1.89,1,3.48,7.42,4.37,9.37,6.6,14.51,14.92,28.72,27.4,38.63s29.85,14.84,44.78,9.28"/><path class="cls-19" d="M1076.15,5146.83l149.49-3.16"/><path class="cls-19" d="M1139.69,4965.52a396.92,396.92,0,0,0,35.92-34.16"/></g><g id="Dumpling_Bowl" data-name="Dumpling Bowl"><ellipse class="cls-20" cx="2344.93" cy="3658.32" rx="817.8" ry="251.9"/><ellipse class="cls-21" cx="2352.78" cy="3751.09" rx="566.68" ry="166.52"/><path class="cls-2" d="M1520.6,3687.56c7,311.57,5.64,276.66,6.32,294.12"/><path class="cls-2" d="M1527.14,4379.41l-6,321.83s728.88,702.13,1494.53,93.62"/><path class="cls-2" d="M3142.73,4330.47c15.66-646.07,20-629.73,20-629.73"/><path class="cls-2" d="M1526.92,4537s756.72,564.83,1476.28,72.7"/><path class="cls-2" d="M1700.94,4430.69s783.48,430,1441.79-142"/><path class="cls-2" d="M2223.29,4359s525.84,128.23,919.44-279.39"/><path class="cls-22" d="M2553.31,4155.48c157.77-15.44,386.22-68.74,558.54-252.39q23.36-24.89,43.5-50.79"/><path class="cls-23" d="M1710,4016.34S1569.54,3945,1526.2,3885.22"/><polyline class="cls-23" points="2202.43 4155.48 2670.68 4155.48 2662.14 4272.45 2395.36 4279.95"/><line class="cls-24" x1="2787.45" y1="3887.49" x2="2794.91" y2="4091.74"/><line class="cls-23" x1="1992.89" y1="3900.69" x2="1992.89" y2="4025.42"/><line class="cls-25" x1="3006.19" y1="3996.35" x2="3015.68" y2="4188.24"/><line class="cls-26" x1="2848.81" y1="4288.72" x2="2856.63" y2="4472.66"/><line class="cls-26" x1="2955.48" y1="4433.92" x2="2964.16" y2="4628.74"/><line class="cls-26" x1="2831.27" y1="4711.21" x2="2831.27" y2="4917.7"/><line class="cls-26" x1="2446.99" y1="4585.79" x2="2436.56" y2="4810.99"/><line class="cls-26" x1="2095.47" y1="4787.17" x2="2081.34" y2="5002.5"/><line class="cls-26" x1="1857.06" y1="4497.5" x2="1835.13" y2="4694.24"/><line class="cls-2" x1="2199.9" y1="3429.41" x2="2199.9" y2="3584.57"/><line class="cls-2" x1="2618.37" y1="3440.06" x2="2610.64" y2="3601.47"/><line class="cls-27" x1="2928.01" y1="3495.6" x2="2909.46" y2="3712.89"/><line class="cls-28" x1="1787.06" y1="3728.62" x2="1787.06" y2="3489.51"/></g><g id="Dumplings"><path class="cls-29" d="M1904.09,3636.88c2.17-19.55,15.26-36.36,30.65-48.61s33.25-20.91,49.78-31.57a241.14,241.14,0,0,0,48.91-41.78c15.49-17.3,28.85-37.93,31-61.05,10.81,14.2,31.57,14.25,48.89,18.56,28.3,7,51.62,28.71,64.81,54.72s17.05,56,15.56,85.09c-.36,7-1.14,14.3-5.16,20-5.06,7.19-14,10.22-22.12,13.72a123.75,123.75,0,0,0-43.38,31.49"/><path class="cls-9" d="M2067.89,3464.4a97.41,97.41,0,0,1-31.65,82.67c-1.13,1-2.25,3-1,3.74"/><path class="cls-9" d="M2072.18,3465.4a165.71,165.71,0,0,1,7.16,93.74"/><path class="cls-9" d="M2079.23,3472c12,11.21,26.56,19.3,40.14,28.58s26.68,20.3,33.82,35.12c.19.38.36.87.08,1.2s-1-.21-.6-.43"/><path class="cls-29" d="M2326,3599.5a120.7,120.7,0,0,1,46.75-37.92c26.43-12.07,58.29-15.26,78.37-36.26,10.73-11.23,16.55-26.15,22.1-40.66,2.5,5.36,1.86,11.6,3,17.4s5.45,12.06,11.33,11.49,8.84-7.15,10.65-12.76q2.13-6.64,4.28-13.3a145.09,145.09,0,0,0,13.18,25.79c2.79,4.33,5.81,8.51,8.83,12.68l14.59,20.19c4.18,5.78,8.38,11.6,13.38,16.69,6,6.09,13,11,19.54,16.51a161.47,161.47,0,0,1,17.39,16.91c8.75,9.9,16.6,22,16,35.18-.45,9.83-5.56,18.83-11.2,26.9a178.75,178.75,0,0,1-59.15,53.44c-8.5,4.74-17.56,8.83-27.21,10-11.58,1.42-23.41-1.41-35,.32"/><path class="cls-9" d="M2526.22,3620.52c-.9-.21.24,1.51.74.74s-.28-1.72-1-2.34c-7.37-6.62-12-15.71-16.39-24.57-12.24-24.5-24.69-49.7-27.34-77-.14-1.38,1.07-3.42,2-2.38-1.82,7.93-6.74,12.09-9.42,19.77a138.73,138.73,0,0,1-11.58,25.56,102.24,102.24,0,0,1-34.32,34.66"/><path class="cls-9" d="M2502.76,3509.26a138.7,138.7,0,0,0,35.81,70c8.18,8.56,17.81,16.6,21.5,27.86"/><path class="cls-29" d="M2136.35,3795.73c8.64,7.87,19.82,12.3,31,15.81,45.83,14.44,95.31,16,142.52,7.06s92.17-28.23,132.7-54c7.16-4.55,14.36-9.49,19.15-16.49,5.09-7.46,7-16.57,8.78-25.42,2-9.78,3.93-20.08.88-29.57-2.31-7.2-7.3-13.22-12.56-18.64a155.64,155.64,0,0,0-65.58-40.16c-12.52-3.85-25.7-6.19-37.15-12.56-24.85-13.82-36.1-43-44.57-70.2-8.05,10.76-12.69,23.66-19.47,35.27a110,110,0,0,1-71.9,51.59c-11.51,2.36-23.37,2.85-34.79,5.63a89.1,89.1,0,0,0-50,33.2"/><path class="cls-9" d="M2231,3676.33c16.82-3.19,29-17.37,39.65-30.8,18.41-23.28,37.21-49.57,36.2-79.23-6,48.27,15,93.87,19.37,142.31"/><path class="cls-9" d="M2315,3567.14a109.47,109.47,0,0,0,86.66,111.57c.71.15,1.59.25,2.06-.32s-.45-1.64-.88-1"/><path class="cls-29" d="M1882.14,3667.08c-23.46,15.7-43.07,40.6-43.42,68.82-.38,31.34,23.47,59,51.85,72.28s60.64,15.05,92,15.78c49.53,1.17,101-.05,145.53-21.75,25-12.16,48.55-33.66,50.52-61.36,1.89-26.42-16.57-50.33-38-65.85s-46.61-25.44-67.94-41.15c-10.14-7.46-19.46-16.62-26.18-27.32-3.52-5.59-7.13-25.64-11.85-28.66-10.07-6.43-18.86,11.68-25,18.85C1976.6,3635.31,1923,3639.72,1882.14,3667.08Z"/><path class="cls-9" d="M2020,3585.21c-6.16,15.13-12.48,30.29-21.26,44.07a143.34,143.34,0,0,1-70.64,57"/><path class="cls-9" d="M2030.59,3581.48a106.92,106.92,0,0,0,38.49,122.16"/><path class="cls-30" d="M2718.85,3615.21a237,237,0,0,0,56.43-105.95l2.41,17.57c4.55,2.44,10.45.48,14.09-3.19s5.52-8.68,7.31-13.52c-2.16,26.62,6,53.17,18,77.05,7.05,14.08,15.69,27.77,28,37.65,22.89,18.45,56.68,22.42,74.48,45.82,13.7,18,13.32,45.36-.87,63-5.32,6.61-12.2,11.79-19.38,16.32a157.74,157.74,0,0,1-73.42,23.83c-3.52.23-7.36.47-10,2.84"/><path class="cls-31" d="M2786.33,3528c-3.75,44.71,15.72,90.75,50.42,119.19"/><path class="cls-31" d="M2779.7,3530.88c1.08,31-14.71,59.85-30,86.86"/><path class="cls-30" d="M2558.7,3804.57c-13.5-3.42-27.28-8.52-36.56-18.91-10.24-11.47-13.45-28-11.22-43.25s9.31-29.31,17.59-42.27c11.27-17.64,25.46-34.17,44.21-43.46,10.37-5.14,21.78-7.89,32.3-12.71,19.61-9,35.47-25,46.74-43.4s18.19-39.15,23.09-60.16a313.87,313.87,0,0,0,7.46,38.7,57.81,57.81,0,0,0,21.49-34.78l6.57,60.43c.74,6.85,1.54,13.87,4.63,20,5.95,11.84,19,18.05,31.1,23.43l38.84,17.22c12.41,5.5,25.32,11.37,33.82,22,5.54,6.91,8.8,15.37,11.28,23.87,3.4,11.63,5.5,24.07,2.59,35.83-5.23,21.06-25.14,35.12-45.08,43.68-28.07,12-58.56,16.91-88.89,18.6-28.94,1.6-58.61,2-87.51,1.84A218.85,218.85,0,0,1,2558.7,3804.57Z"/><path class="cls-31" d="M2682.61,3583.11a255.82,255.82,0,0,1-57.82,101.37"/><path class="cls-31" d="M2687.71,3579.24A145.62,145.62,0,0,0,2736.85,3688l-2.5-2.3"/></g><g id="Ramen"><ellipse class="cls-20" cx="3969.02" cy="4378.13" rx="950.34" ry="234.81" transform="translate(-251.85 242.26) rotate(-3.39)"/><path class="cls-32" d="M3010.93,4482s3.91,1293.91,846,1291.51,1048.67-823.9,1069.33-1398"/><path class="cls-33" d="M3080.37,4997.58s855.59,366.14,1751.77-25.64"/><path class="cls-1" d="M3068.45,4920.47s870.31,366.14,1781.9-25.64"/><path class="cls-34" d="M3055.22,4852.82s882,366.14,1805.91-25.64"/><path class="cls-19" d="M3261.82,4326.54c10.14,18.12,31.76,27.41,52.51,28.12s41-5.79,60.6-12.63c61.58-21.49,122.26-47.18,186.6-57.84s134.53-4.6,187.83,33"/><path class="cls-19" d="M3182.93,4414.52a878.21,878.21,0,0,1,303.67,21.86c68.73,17.3,135.16,42.89,203.9,60.12s141.49,25.91,210.28,8.88c53.51-13.25,102-41.36,153.83-60.2s111.56-27.71,160.65-2.65"/><path class="cls-19" d="M3647.61,4426.19a311.14,311.14,0,0,1,160-5.73c29.39,6.75,57.88,17.8,87.83,21.24,72.73,8.34,142.5-28.9,203.42-69.51,13.44-9,27.46-19,33.23-34.13s-1.4-36.06-17.37-38.5"/><path class="cls-19" d="M4221.51,4244.21c36.61-5.22,73.83.63,110.15,7.62,19.5,3.75,39.33,8,56.49,18s31.48,26.86,33.43,46.63c1.73,17.47-6.5,34.89-18.85,47.36s-28.44,20.58-44.88,26.75a256.07,256.07,0,0,1-134,12.38c-3.67-.65-9.45,1.31-7.54,4.51"/><path class="cls-19" d="M4443.08,4255.38c33.26-5.1,68.1-10.07,99.87,1,10.32,3.6,20,8.82,30.4,12.24,28.37,9.34,59.94,4.4,87.23-7.71"/><path class="cls-19" d="M4617.5,4300.22c.36,29.92-13.73,58.71-33.82,80.88s-45.84,38.43-72.25,52.49c-37.19,19.8-77,36-118.94,40.37-25.62,2.67-55.11,2.42-71.92,21.94"/><path class="cls-19" d="M3907.69,4251.87c-24.36-14.66-54.21-17.58-82.52-15s-55.87,10.37-83.82,15.63a484.16,484.16,0,0,1-92.75,8.34c-19-.13-39-1.66-55.21-11.61"/><path class="cls-19" d="M3320.37,4498.21c22.26-11.51,48.23-12.86,73.29-13.35,23-.45,46.49-.31,68.35,6.9,14,4.61,26.83,12,40.3,17.88a207.62,207.62,0,0,0,119.75,14"/><path class="cls-19" d="M3838,4329.49c16.3-5.43,32.25,7.45,46.67,16.77a129.47,129.47,0,0,0,67.17,20.56c46,.94,89.07-22.52,134.83-27"/><path class="cls-19" d="M4623.79,4435.23A83.27,83.27,0,0,1,4661,4386c16.31-9.76,35.41-13.57,53-20.89a142.4,142.4,0,0,0,68-59.69"/><path class="cls-19" d="M4163.74,4287.22c20.42-2.36,41.23-4.71,61.41-.8,19.47,3.77,37.34,13.17,56.15,19.46s40.22,9.24,57.95.34"/><path class="cls-19" d="M4092.24,4204.46c4.06,14.35,20.64,21.93,35.55,21.38s28.81-7.11,42.83-12.2a227.4,227.4,0,0,1,147.06-2.33c18.75,6.15,36.84,14.79,56.32,17.94,60.4,9.76,124.85-34.25,180.69-9.24"/><path class="cls-19" d="M3377.67,4334.88c42.39-38.57,101.83-57.67,158.75-51,15.23,1.79,31.65,5.12,45.15-2.14"/><path class="cls-19" d="M3248.24,4473.57c7.87-13.71,25.22-18.09,40.72-21.19,35-7,73.23-13.62,104.93,2.81,15.66,8.11,28.1,21.14,42.05,31.94a175.08,175.08,0,0,0,127.93,34.81"/><path class="cls-19" d="M3465.14,4406c36.91-24.37,87.74-25.71,125.88-3.32,25.79,15.14,46.26,40.13,75,48.32,34,9.67,69.47-6.72,100.32-23.94s63.83-36.4,98.94-32.55"/><path class="cls-19" d="M4058.79,4256.62c27.21-4.12,56.67-7.89,80.87,5.22,17.26,9.35,29.14,25.94,43.28,39.57a155.44,155.44,0,0,0,85.43,41.66"/><path class="cls-19" d="M4207.6,4374.88c31.62,18.36,74.18,15.69,103.26-6.48,15.52-11.83,26.91-28.18,40.77-41.92a159.61,159.61,0,0,1,89.48-44.32c19.71-2.77,42.21-.77,55.63,13.93,10.73,11.75,18.29,32.14,34,29.82,4.46-.65,10.45-2.64,12.41,1.43"/><path class="cls-19" d="M4731.62,4233.57c-9.4,34.28-35.55,62.36-66.6,79.66s-66.69,24.77-102.11,27.8c-19.89,1.7-40.19,2.13-59.14,8.44s-36.83,19.84-42.24,39.06"/><path class="cls-19" d="M4014.93,4517.35a127.49,127.49,0,0,0,74,2.88c22.59-6,43-18,64.17-27.93,81.44-38.15,174.48-44.56,264.13-37.45"/><path class="cls-19" d="M3188.9,4489.14a92.28,92.28,0,0,1,63.18-3.34c25.32,7.86,45.88,26.18,69.35,38.51,45.39,23.85,99.78,24.19,150.22,15s98.85-27.24,148.86-38.55"/><path class="cls-19" d="M3660.38,4435.81c48.69-14.81,103.58-7.8,147,18.78,21.7,13.29,40.47,31.07,62.73,43.38a150.34,150.34,0,0,0,88.23,17.78"/><path class="cls-19" d="M3650.05,4383.14c36.52,16.71,79.41,6,117-8.21s75.72-32.18,115.78-29.27"/><path class="cls-19" d="M3257.18,4342.55c42.45,28.4,96.62,33.84,147.4,28.31s99.87-21,149.91-31.19,102.9-15,151.51.7"/><path class="cls-19" d="M4078.52,4262c33.4,2.26,61.79,24.17,93.06,36.11,54.61,20.86,116.8,10.34,170.58-12.57"/><path class="cls-19" d="M4096.91,4456.71c4,16.38,20.38,26.38,36,32.81,73.52,30.34,162.81,18.48,225.85-30,29.13-22.39,54-52.48,88.92-63.88,37.69-12.31,79.17-.12,118.24-6.88"/><path class="cls-19" d="M3606.64,4555.63c-80.29-50.56-185.23-38.75-273-74.69-20.41-8.35-39.78-19.26-60.71-26.2-42.73-14.19-89-11.05-133.91-7.76"/><path class="cls-19" d="M3235.21,4364.38c30.72,29.64,77,38.32,119.36,32.86s81.94-23.26,120.92-40.66,78.84-34.81,121.28-39.39a211,211,0,0,1,154,45.6"/><path class="cls-19" d="M3889.62,4397.52c26.86,21,65.55,16.59,97.91,5.9s64.17-26.81,98.26-26.08c20.7.45,40.74,7.15,61.29,9.67,47.75,5.84,95-11,140.19-27.64"/><path class="cls-19" d="M4046.57,4309.16c12.41-5.38,26.19-8.57,39.51-6.22s26,11,30.61,23.74c3.19,8.85,2.4,18.95,6.72,27.31,6.7,12.95,22.84,17.18,37.13,20.07"/><path class="cls-19" d="M3679.31,4514.45c13.71,14.82,35.52,18.3,55.62,20.1,154.38,13.78,310.43-21.62,452.36-83.87"/><path class="cls-19" d="M3975.2,4547.09c39.84,4.7,80.05-6.62,116.51-23.35s70.16-38.84,105.65-57.54a627.78,627.78,0,0,1,218.35-67.83"/><path class="cls-19" d="M3909,4208c-20.81-1.69-41.32,6.61-58.75,18.11s-32.49,26.18-48.75,39.28a330.91,330.91,0,0,1-175.16,71.19"/><path class="cls-19" d="M3321.5,4304.36c-34.78,2.07-69.93,6.51-102.13,19.83-17.83,7.36-35.4,18.28-44.18,35.46s-5.35,41.6,11.42,51.13"/><path class="cls-19" d="M3143.68,4403.24l-3.89-1.44c-7.29,21.81,6,47.17,26.7,57.3,7.06,3.46,14.75,5.42,22.37,7.36l72,18.35"/><path class="cls-19" d="M3704.09,4537.66c46.74,6.83,94,13.31,141.07,9.8,98.43-7.33,192.6-57.94,290.85-48.44"/><path class="cls-19" d="M4150,4513.52c56.65-6.75,113.88-7,170.7-12.14s114.09-15.48,165.15-40.94c27.95-13.95,57.07-32.93,87.76-27.08"/></g><g id="Son"><path class="cls-35" d="M4189.45,2407c1.95,3.89,5.84,6.4,9.72,8.37,3.25,1.64,6.79,3.07,10.41,2.72a14.13,14.13,0,0,0,6.15-2.24c5.64-3.55,9.11-10,9.77-16.66,1.25-12.61-9.29-34.56-25-30.28C4187.09,2372.61,4184.13,2396.42,4189.45,2407Z"/><path class="cls-35" d="M3963.54,2416.59c3.83,10,14.91,17.68,25.34,15.09,7-1.73,12.49-7.67,14.84-14.48,5.35-15.46-2.87-39.89-21.87-40.34C3963.2,2376.41,3958.33,2402.92,3963.54,2416.59Z"/><path class="cls-35" d="M4265.8,2389.74a85.66,85.66,0,0,0-9.71-34.92c-5.1-9.65-12.58-18.69-22.85-22.39-12-4.33-26-.35-35.63,8s-15.41,20.47-18.42,32.87c-2.42,9.95-3.2,20.49-.65,30.4,1.72,6.7,6,16.82,12.45,20.36,7.26,4,15.76-2.38,22.59-5.59A470.44,470.44,0,0,0,4265.8,2389.74Z"/><path class="cls-35" d="M4001.92,2442.66c10.1-12,11.39-29.37,7.66-44.56-3.58-14.56-11.61-28.33-23.81-37s-28.78-11.72-42.67-6.08c-16,6.49-32.92,31.68-15.41,45C3949.76,2416.84,3977.81,2428.87,4001.92,2442.66Z"/><path class="cls-9" d="M4100.41,2483.22c-15.71,2.52-32.58-5.9-40-20s-4.87-32.74,6.08-44.29c5-5.27,13.06-9.14,19.39-5.6"/><path class="cls-2" d="M3763.28,2207.64q-17,126.74-22.24,254.66c-.9,22.06-1.47,44.62,5.13,65.69,7,22.26,21.5,41.33,36.74,59a616.91,616.91,0,0,0,126.57,111.39c57.79,38.22,112.07,66.28,179.43,82.54,37,8.92,75.88,14.29,112.83,5.33s71.65-34.7,82.45-71.15c12.5-3.45,31.28-16.14,42.79-22.1,60-31.06,114.61-74.61,151.58-131.15s55.1-126.8,42.24-193.13c11.08,2.13,26.27-1.56,35-8.72s15-16.79,20.78-26.48c11.72-19.71,22-40.77,25.59-63.42s0-47.21-13.87-65.49-39-28.63-60.79-21.54c-27.21,8.85-40.31,39-49.49,66.12"/><path class="cls-19" d="M4516.06,2344.27c7.14-16.6-1.15-38.15-17.56-45.7a6,6,0,0,0-3.91-.74c-1.31.33-2.39,1.84-1.78,3.05a128.77,128.77,0,0,1,8.94-40.93c3.18-8,7.34-15.85,14-21.27s16.26-7.91,24-4.28,12,14.39,7.13,21.47"/><path class="cls-2" d="M4480.87,2227.86c-17.68,22.82-53.69,24.61-78.64,10.11s-40.41-41.17-50.46-68.22a278.2,278.2,0,0,1-10.36-157.85,557.16,557.16,0,0,1-134.13,106.74c-36.63,20.84-82.38,37.45-119.71,17.89-7.3-3.83-14.09-9.11-18.21-16.24-6.49-11.21-5.52-25.22-2.52-37.82,6.77-28.5,19.07-54.41,41.74-73,1.09,1.79,2.75-2.48.66-2.72s-3.37,2.15-4.09,4.11c-25.84,70.92-84.69,129-155.94,153.94-23.13,8.09-51.74,11.75-69.62-5-11.34-10.62-15.28-26.93-16.59-42.41-2-23.76-.39-38.07,7.24-60.65-3.54,31.7-7.84,64-21.85,92.66s-39.56,53.51-71.06,58.53a29.75,29.75,0,0,1-11.78,0c-15.13-3.74-19.07-23.23-18.93-38.82a341.25,341.25,0,0,1,52.64-178.51c36.83-58.14,88.83-113.69,144.84-153.68,32.22-23,67.28-42.7,105.34-53.6,39.55-11.33,81.16-12.87,122.29-13.82,49.18-1.14,99-1.46,146.77,10.3s94,36.94,121.63,77.62c-7.35-19.83-8.09-42.93,5.24-59.35a62.41,62.41,0,0,1,56.52-21.93c3.51.53,7.34,1.62,9.17,4.66,2.12,3.53.61,8.08-1.21,11.78a85.07,85.07,0,0,1-36.38,37.41,142.15,142.15,0,0,1,82.74-41.79c3.27-.43,6.69-.74,9.81.34,8.6,3,10.4,15.35,5.67,23.13s-13.49,12-21.77,15.78l-54.65,25c-13.22,6.06-28.66,15.69-27.43,30.18.49,5.66,3.61,10.71,6.54,15.57a390,390,0,0,1,52.35,248.38"/><path class="cls-36" d="M4121.86,2588.65c29.6-4.07,56-20.18,81.36-35.93,21.57-13.38,45.23-29.74,49.3-54.8,2.25,6.55,9.53,10.29,16.45,10.55s13.61-2.25,20.08-4.72l20.7-7.89"/><path class="cls-36" d="M4252.49,2508.7q6.7,27,11,54.45c3.14,20.12,4.46,43.22-9.31,58.22-11.27,12.27-29.29,15.23-45.91,16.36-8.05.55-16.23.84-24.1-.94-17.54-4-31.12-17.43-43.67-30.32-5.54-5.69-11.46-12.26-11.39-20.21"/><path class="cls-36" d="M4147.59,2606.36c46.39-2.63,89.75-34.87,105.65-78.53"/><path class="cls-36" d="M4201.75,2630.78c8.62-22.8,36.48-36.27,59.7-28.85"/><path class="cls-36" d="M3901.74,2315c1.79-6.15,5.47-11.58,9.61-16.46A93.1,93.1,0,0,1,3981,2266.1c5.17,0,11,.78,14,5,2.43,3.46,2.05,8.34,0,12s-5.54,6.39-9.13,8.63c-15.43,9.64-34.13,12.51-50.54,20.37a90.62,90.62,0,0,0-28.87,21.87C3901.65,2339.51,3900.81,2318.2,3901.74,2315Z"/><path class="cls-36" d="M4260.91,2302.47c3.47-.31,7.2-1.47,9.06-4.41,2.44-3.88.57-9-2.14-12.74-7-9.48-18.48-14.3-29.56-18.27s-22.31-7.54-34-8.81c-6.89-.75-14-.67-20.6,1.44s-12.69,6.46-15.86,12.63a12.31,12.31,0,0,0-1.57,6.36c.36,5.15,5.15,8.79,9.8,11,14.22,6.82,29.53,6.37,44.88,6.08C4234.76,2295.51,4247.14,2303.72,4260.91,2302.47Z"/><path class="cls-2" d="M3778,2649.27c-91.47,88.93-169.77,192.64-221.41,309.3s-75.87,246.67-60.12,373.26c5.68,45.71,16.89,91.71,41.66,130.54,19.92,31.22,47.73,56.49,75.5,81,99.66,87.94,209.81,174.38,340.92,196.15A454.38,454.38,0,0,1,4020,3518.88c-101.17-72.73-226.57-101.28-348.22-128.2a2127.61,2127.61,0,0,0,103-482.82c3.3-35.14,5.36-72.38-10.55-103.88s-56.27-53.38-87.56-37.06"/><path class="cls-2" d="M4666.8,3154c-73.94-63.94-128.62-148.16-166.39-238.32-19.05-45.49-34.17-93.65-34-143s17.35-100.25,54.28-133c3-2.66,10.31-1.78,7.93,1.45"/><path class="cls-2" d="M4701.08,3154.2C4645.16,3171,4592,3195.88,4540.27,3223c-36.68,19.21-74,40.63-98.06,74.33-2,2.77.65,8.74,2.14,5.69"/><path class="cls-2" d="M4444.13,3292c-7.37,17.51-4.7,37.47-1.18,56.15A739.09,739.09,0,0,0,4473,3459.42c2.9,8.14,6.57,17,14.31,20.81,76.86-11.06,153.43-48.48,219.55-89.21,41.06-25.29,81.91-52.77,111.75-90.65s47.48-88.15,36.09-135c-49.8-204.89-168.55-394-330.2-529.39"/><path class="cls-37" d="M4466.42,2593.66a535.75,535.75,0,0,1,56.89,39.87"/><path class="cls-2" d="M3740.13,2687.55a231.5,231.5,0,0,1,75.6-62.69"/><path class="cls-8" d="M3969,3675.88a63.9,63.9,0,0,0,41.28-5.49c8,18.56,23.92,32.5,40.73,43.7,41.46,27.63,90.1,41.8,139.24,47.5,30.31,3.53,123.48,19.65,135-16.94a14,14,0,0,0,.57-8c-1.3-4.4-5.77-7-9.94-8.91-32.23-15-68.25-19.21-103.56-23.25"/><path class="cls-8" d="M4222.71,3644.82c6.39-1.72,13.13-1.51,19.72-1a196.86,196.86,0,0,1,82.83,26.36c7.89,4.64,15.91,10.4,19,19,2.74,7.61,1.05,16.25-2.7,23.41s-9.37,13.13-14.92,19"/><path class="cls-8" d="M4245.88,3589.56c10.48-2.9,21.59.32,31.92,3.72q31.24,10.3,61.57,23.13c11.15,4.71,23.39,11,26.82,22.59,1.53,5.22,1,10.86-.49,16.08a46,46,0,0,1-17.71,24.85"/><path class="cls-8" d="M4023.54,3525.2c3.5,3.54,9.38,3.46,14,1.52s8.33-5.39,12.49-8.12c11.7-7.7,26.19-9.59,40.13-10.94,49.48-4.8,100.11-5.21,148.09,7.76s93.41,40.51,120.27,82.33c3.86,6,7.4,13.48,4.51,20"/><path class="cls-8" d="M4462,3405.54c-19.66,5.64-40.56,12.08-53.52,27.9-8.56,10.46-12.65,23.92-20.58,34.87-15,20.72-41.56,29.56-66.87,33.38a260.34,260.34,0,0,1-154.27-24.45c-17.34-8.69-36-24-32.74-43.17.44-2.61,4.15-5.37,5-2.86,35.9-3,72.85-5.32,107.63,4"/><path class="cls-8" d="M4139.83,3422c-6.92-8.48-14.25-19.55-9.69-29.5,4.67-10.18,18.31-11.64,29.52-11.43a872,872,0,0,1,89.33,6.33"/><path class="cls-8" d="M4141,3372.13c-5.34-14.55,6.15-30.9,20.58-36.55s30.59-3.51,45.92-1.29l54.82,7.92"/><path class="cls-8" d="M4436.8,3310c-7.23,1.79-14.68-2.29-20-7.47s-9.53-11.55-15.39-16.15c-12.66-9.93-30.38-9.62-46.38-7.81-31.69,3.6-63.08,11.27-95,10.93-16.69-.19-33.61-2.55-49.93,1s-32.46,15-35,31.46"/><path class="cls-8" d="M4261.44,3277c-17.19-.44-30.57-20.83-24.06-36.75s30.47-21,42.86-9.1"/><path class="cls-8" d="M4275.28,3276.51A1921.53,1921.53,0,0,1,4413,2875.82c7.69-16.26,21.78-35.37,39-30.12,7.33,2.24,12.67,8.68,16.1,15.54,5.72,11.45,7.29,24.5,7.8,37.28,3.21,81-32.05,157.9-66.53,231.23l-64.84,137.88"/><path class="cls-8" d="M4425,2923.16c-14.42,23.83-29.23,53-17.18,78.08,24.19-18.85,37-51.31,32.16-81.6-7.31-1.43-15.25,4-16.53,11.37"/><path class="cls-38" d="M4001.65,4337.55a123.06,123.06,0,0,1-87.92-4.25c-1.25-.56-2.35-2.68-1-2.83l.54-1.42q98-294.29,217.76-580.73s40,10.88,55.48,12.82l-1.81,6.18q-99.26,271.72-188.27,547c-1.3,4,1.07,8.18,2.34,12.21s.45,9.78-3.71,10.56-3.5-8.41-.19-5.78"/><path class="cls-2" d="M3697.8,3614c-16,25.58-28.81,53.49-34.1,83.17a176.64,176.64,0,0,0,0,61.49c9.67,5.89,12,7.69,22.18,12.75,61.63,30.83,134.06,28.62,202.77,23.36s139.73-12.61,205,9.5"/><path class="cls-6" d="M4175.06,3814.91c50.95-.71,102.55-1.64,151.64-15.19,48.84-13.47,93.36-38.92,140.66-57s100.74-28.59,148.27-11.11"/><path class="cls-6" d="M3741.22,3792.52a2113.37,2113.37,0,0,0,17.27,244"/><path class="cls-6" d="M4171.17,4046.48a1036.86,1036.86,0,0,1,37.48-150.55c.78-2.36,3.78-5.08,5.05-2.95,25.76,43.09,26.63,100.3,16.64,149.5"/><path class="cls-6" d="M4699.12,3840.85a396.57,396.57,0,0,1-53.32,219.77"/></g><g id="Rice"><ellipse class="cls-39" cx="5780.92" cy="4687.66" rx="122.3" ry="757.58" transform="translate(1000.97 10392.5) rotate(-89.08)"/><path class="cls-40" d="M6533.17,4687.66s126.68,358.84-90.49,374.8-681.76,13.4-681.76,13.4h30s-464.58,2.55-681.76-13.4-90.49-374.8-90.49-374.8"/><path class="cls-41" d="M5120.81,4730.3c1.38-26.53,24.53-47,48.7-58,7.81-3.57,16.58-6.55,24.86-4.26s14.89,12,11,19.64a106.14,106.14,0,0,1,65-55.33c6.11-1.79,12.79-3,18.77-.8s10.67,8.95,8.57,15a74.66,74.66,0,0,1,43.29-39.4c11.58-4,28.56-1.91,30.47,10.19a113.92,113.92,0,0,1,65.74-70.61c18.36-7.26,40.73-9.05,56.65,2.63,21.28-34,63.35-53.75,103.12-48.36,4.35.6,8.88,1.45,13.07.1,3.33-1.07,6.07-3.43,8.78-5.66a189.79,189.79,0,0,1,74.18-37.48c19.78-5,44.78-4.76,55.83,12.39,13.64-22.4,34.89-41,60.32-47.37s54.89,1.11,71.25,21.6c2.78-18.7,25.17-30,43.48-25.27s31.58,21.38,37.55,39.31c4.43-15.76,25.52-22.55,40.22-15.35s22.47,24.46,22.44,40.83c17.94-10,42.89-16.1,63.22-13.27,27.74,3.85,48.67,34.24,42.37,61.53,17.84-14.82,46.56-11.36,63.51,4.48s22.88,41,19.48,64c17.79-13.12,43.75-13.94,62.34-2s28.57,36,24,57.58c15.09-9.89,34.47-14.93,51.45-8.84s29.4,25.62,23.72,42.74c12.39-13.58,37.13-8.34,47.43,6.89s8.69,35.92,1.59,52.88c-17.92,12.12-40,9.24-61.32,12.68a3569.23,3569.23,0,0,1-1203.54-12.18C5143.26,4747.84,5129,4743.18,5120.81,4730.3Z"/></g></g></svg>