<svg width="285" height="127" viewBox="0 0 285 127" fill="none" xmlns="http://www.w3.org/2000/svg">
<path d="M0.902344 10.9003C0.902344 5.37742 5.3795 0.900269 10.9023 0.900269H274.409C279.932 0.900269 284.409 5.37742 284.409 10.9003V116.455C284.409 121.978 279.932 126.455 274.409 126.455H10.9023C5.37949 126.455 0.902344 121.978 0.902344 116.455V10.9003Z" fill="#C4C4C4"/>
<path d="M90.0233 44.3433H92.9933V60.0953H90.0233V44.3433ZM95.8159 60.0953V44.3433H98.6979V60.0953H95.8159ZM101.165 60.0953V44.3433H104.047V60.0953H101.165ZM113.973 58.6873H113.797C113.46 59.23 113.005 59.6627 112.433 59.9853C111.861 60.2933 111.208 60.4473 110.475 60.4473C109.111 60.4473 108.092 60.0293 107.417 59.1933C106.757 58.3573 106.427 57.2427 106.427 55.8493V49.3153H109.309V55.4973C109.309 56.2747 109.478 56.854 109.815 57.2353C110.167 57.602 110.673 57.7853 111.333 57.7853C111.729 57.7853 112.074 57.7047 112.367 57.5433C112.675 57.3673 112.932 57.14 113.137 56.8613C113.357 56.568 113.518 56.2307 113.621 55.8493C113.738 55.4533 113.797 55.0353 113.797 54.5953V49.3153H116.679V60.0953H113.973V58.6873ZM123.308 60.4473C122.604 60.4473 121.974 60.3593 121.416 60.1833C120.874 60.0073 120.397 59.78 119.986 59.5013C119.59 59.208 119.253 58.878 118.974 58.5113C118.696 58.13 118.483 57.7487 118.336 57.3673L120.91 56.2673C121.16 56.8247 121.49 57.2427 121.9 57.5213C122.326 57.7853 122.795 57.9173 123.308 57.9173C123.836 57.9173 124.254 57.822 124.562 57.6313C124.87 57.4407 125.024 57.2133 125.024 56.9493C125.024 56.656 124.892 56.4213 124.628 56.2453C124.379 56.0547 123.939 55.886 123.308 55.7393L121.79 55.4093C121.453 55.336 121.101 55.2187 120.734 55.0573C120.382 54.896 120.06 54.6907 119.766 54.4413C119.473 54.192 119.231 53.8913 119.04 53.5393C118.85 53.1873 118.754 52.7767 118.754 52.3073C118.754 51.7793 118.864 51.31 119.084 50.8993C119.319 50.4887 119.634 50.144 120.03 49.8653C120.426 49.572 120.888 49.352 121.416 49.2053C121.959 49.044 122.538 48.9633 123.154 48.9633C124.181 48.9633 125.098 49.1687 125.904 49.5793C126.711 49.9753 127.305 50.6133 127.686 51.4933L125.2 52.5053C124.995 52.08 124.694 51.772 124.298 51.5813C123.902 51.3907 123.506 51.2953 123.11 51.2953C122.7 51.2953 122.34 51.3833 122.032 51.5593C121.724 51.7207 121.57 51.9333 121.57 52.1973C121.57 52.4467 121.695 52.6447 121.944 52.7913C122.208 52.938 122.56 53.07 123 53.1873L124.65 53.5833C125.75 53.8473 126.564 54.2727 127.092 54.8593C127.635 55.4313 127.906 56.1133 127.906 56.9053C127.906 57.3747 127.796 57.822 127.576 58.2473C127.356 58.6727 127.041 59.054 126.63 59.3913C126.234 59.714 125.75 59.9707 125.178 60.1613C124.621 60.352 123.998 60.4473 123.308 60.4473ZM130.756 51.7793H128.864V49.3153H130.756V46.0153H133.638V49.3153H136.278V51.7793H133.638V55.9593C133.638 56.2087 133.66 56.4433 133.704 56.6633C133.762 56.8687 133.865 57.0447 134.012 57.1913C134.217 57.426 134.51 57.5433 134.892 57.5433C135.141 57.5433 135.339 57.5213 135.486 57.4773C135.632 57.4187 135.772 57.3453 135.904 57.2573L136.718 59.7873C136.38 59.9487 136.014 60.066 135.618 60.1393C135.236 60.2273 134.811 60.2713 134.342 60.2713C133.799 60.2713 133.308 60.1907 132.868 60.0293C132.442 59.8533 132.083 59.6187 131.79 59.3253C131.1 58.6653 130.756 57.7267 130.756 56.5093V51.7793ZM138.398 49.3153H141.104V50.8113H141.28C141.412 50.5473 141.588 50.3053 141.808 50.0853C142.028 49.8653 142.27 49.6747 142.534 49.5133C142.813 49.352 143.106 49.2273 143.414 49.1393C143.737 49.0513 144.052 49.0073 144.36 49.0073C144.741 49.0073 145.064 49.044 145.328 49.1173C145.607 49.1907 145.841 49.286 146.032 49.4033L145.262 52.0213C145.086 51.9333 144.888 51.8673 144.668 51.8233C144.463 51.7647 144.206 51.7353 143.898 51.7353C143.502 51.7353 143.143 51.816 142.82 51.9773C142.497 52.124 142.219 52.3367 141.984 52.6153C141.764 52.894 141.588 53.224 141.456 53.6053C141.339 53.972 141.28 54.3753 141.28 54.8153V60.0953H138.398V49.3153ZM153.571 58.9513H153.395C153.058 59.362 152.647 59.714 152.163 60.0073C151.694 60.3007 151.085 60.4473 150.337 60.4473C149.78 60.4473 149.252 60.352 148.753 60.1613C148.269 59.9853 147.844 59.736 147.477 59.4133C147.111 59.0907 146.825 58.702 146.619 58.2473C146.414 57.7927 146.311 57.294 146.311 56.7513C146.311 56.194 146.421 55.6953 146.641 55.2553C146.861 54.8007 147.169 54.412 147.565 54.0893C147.961 53.7667 148.423 53.5247 148.951 53.3633C149.494 53.1873 150.081 53.0993 150.711 53.0993C151.415 53.0993 151.995 53.158 152.449 53.2753C152.904 53.378 153.278 53.488 153.571 53.6053V53.2753C153.571 52.7033 153.344 52.234 152.889 51.8673C152.435 51.486 151.87 51.2953 151.195 51.2953C150.198 51.2953 149.355 51.7133 148.665 52.5493L146.575 51.1193C147.719 49.682 149.281 48.9633 151.261 48.9633C152.933 48.9633 154.209 49.3593 155.089 50.1513C155.969 50.9287 156.409 52.0873 156.409 53.6273V60.0953H153.571V58.9513ZM153.571 55.7173C153.234 55.556 152.882 55.4313 152.515 55.3433C152.163 55.2407 151.775 55.1893 151.349 55.1893C150.66 55.1893 150.125 55.3433 149.743 55.6513C149.377 55.9447 149.193 56.3113 149.193 56.7513C149.193 57.1913 149.369 57.5433 149.721 57.8073C150.088 58.0713 150.506 58.2033 150.975 58.2033C151.357 58.2033 151.709 58.1373 152.031 58.0053C152.354 57.8587 152.625 57.6753 152.845 57.4553C153.08 57.2207 153.256 56.9567 153.373 56.6633C153.505 56.3553 153.571 56.04 153.571 55.7173ZM159.674 51.7793H157.782V49.3153H159.674V46.0153H162.556V49.3153H165.196V51.7793H162.556V55.9593C162.556 56.2087 162.578 56.4433 162.622 56.6633C162.68 56.8687 162.783 57.0447 162.93 57.1913C163.135 57.426 163.428 57.5433 163.81 57.5433C164.059 57.5433 164.257 57.5213 164.404 57.4773C164.55 57.4187 164.69 57.3453 164.822 57.2573L165.636 59.7873C165.298 59.9487 164.932 60.066 164.536 60.1393C164.154 60.2273 163.729 60.2713 163.26 60.2713C162.717 60.2713 162.226 60.1907 161.786 60.0293C161.36 59.8533 161.001 59.6187 160.708 59.3253C160.018 58.6653 159.674 57.7267 159.674 56.5093V51.7793ZM169.029 47.7533C168.78 47.7533 168.538 47.7093 168.303 47.6213C168.083 47.5187 167.885 47.3867 167.709 47.2253C167.548 47.0493 167.416 46.8513 167.313 46.6313C167.225 46.4113 167.181 46.1693 167.181 45.9053C167.181 45.6413 167.225 45.3993 167.313 45.1793C167.416 44.9593 167.548 44.7687 167.709 44.6073C167.885 44.4313 168.083 44.2993 168.303 44.2113C168.538 44.1087 168.78 44.0573 169.029 44.0573C169.543 44.0573 169.983 44.2407 170.349 44.6073C170.716 44.9593 170.899 45.392 170.899 45.9053C170.899 46.4187 170.716 46.8587 170.349 47.2253C169.983 47.5773 169.543 47.7533 169.029 47.7533ZM167.599 60.0953V49.3153H170.481V60.0953H167.599ZM178.113 48.9633C178.949 48.9633 179.712 49.11 180.401 49.4033C181.105 49.682 181.707 50.078 182.205 50.5913C182.719 51.09 183.115 51.6913 183.393 52.3953C183.687 53.0993 183.833 53.8693 183.833 54.7053C183.833 55.5413 183.687 56.3113 183.393 57.0153C183.115 57.7193 182.719 58.328 182.205 58.8413C181.707 59.34 181.105 59.736 180.401 60.0293C179.712 60.308 178.949 60.4473 178.113 60.4473C177.277 60.4473 176.507 60.308 175.803 60.0293C175.114 59.736 174.513 59.34 173.999 58.8413C173.501 58.328 173.105 57.7193 172.811 57.0153C172.533 56.3113 172.393 55.5413 172.393 54.7053C172.393 53.8693 172.533 53.0993 172.811 52.3953C173.105 51.6913 173.501 51.09 173.999 50.5913C174.513 50.078 175.114 49.682 175.803 49.4033C176.507 49.11 177.277 48.9633 178.113 48.9633ZM178.113 57.7853C178.48 57.7853 178.832 57.7193 179.169 57.5873C179.521 57.4407 179.829 57.2353 180.093 56.9713C180.357 56.7073 180.563 56.3847 180.709 56.0033C180.871 55.622 180.951 55.1893 180.951 54.7053C180.951 54.2213 180.871 53.7887 180.709 53.4073C180.563 53.026 180.357 52.7033 180.093 52.4393C179.829 52.1753 179.521 51.9773 179.169 51.8453C178.832 51.6987 178.48 51.6253 178.113 51.6253C177.732 51.6253 177.373 51.6987 177.035 51.8453C176.698 51.9773 176.397 52.1753 176.133 52.4393C175.869 52.7033 175.657 53.026 175.495 53.4073C175.349 53.7887 175.275 54.2213 175.275 54.7053C175.275 55.1893 175.349 55.622 175.495 56.0033C175.657 56.3847 175.869 56.7073 176.133 56.9713C176.397 57.2353 176.698 57.4407 177.035 57.5873C177.373 57.7193 177.732 57.7853 178.113 57.7853ZM188.176 50.7233H188.352C188.689 50.1807 189.144 49.7553 189.716 49.4473C190.288 49.1247 190.941 48.9633 191.674 48.9633C192.349 48.9633 192.943 49.0733 193.456 49.2933C193.969 49.5133 194.387 49.8287 194.71 50.2393C195.047 50.6353 195.297 51.1193 195.458 51.6913C195.634 52.2487 195.722 52.872 195.722 53.5613V60.0953H192.84V53.9133C192.84 53.136 192.664 52.564 192.312 52.1973C191.975 51.816 191.476 51.6253 190.816 51.6253C190.42 51.6253 190.068 51.7133 189.76 51.8893C189.467 52.0507 189.21 52.278 188.99 52.5713C188.785 52.85 188.623 53.1873 188.506 53.5833C188.403 53.9647 188.352 54.3753 188.352 54.8153V60.0953H185.47V49.3153H188.176V50.7233ZM108.601 70.9633C109.437 70.9633 110.199 71.11 110.889 71.4033C111.593 71.682 112.194 72.078 112.693 72.5913C113.206 73.09 113.602 73.6913 113.881 74.3953C114.174 75.0993 114.321 75.8693 114.321 76.7053C114.321 77.5413 114.174 78.3113 113.881 79.0153C113.602 79.7193 113.206 80.328 112.693 80.8413C112.194 81.34 111.593 81.736 110.889 82.0293C110.199 82.308 109.437 82.4473 108.601 82.4473C107.765 82.4473 106.995 82.308 106.291 82.0293C105.601 81.736 105 81.34 104.487 80.8413C103.988 80.328 103.592 79.7193 103.299 79.0153C103.02 78.3113 102.881 77.5413 102.881 76.7053C102.881 75.8693 103.02 75.0993 103.299 74.3953C103.592 73.6913 103.988 73.09 104.487 72.5913C105 72.078 105.601 71.682 106.291 71.4033C106.995 71.11 107.765 70.9633 108.601 70.9633ZM108.601 79.7853C108.967 79.7853 109.319 79.7193 109.657 79.5873C110.009 79.4407 110.317 79.2353 110.581 78.9713C110.845 78.7073 111.05 78.3847 111.197 78.0033C111.358 77.622 111.439 77.1893 111.439 76.7053C111.439 76.2213 111.358 75.7887 111.197 75.4073C111.05 75.026 110.845 74.7033 110.581 74.4393C110.317 74.1753 110.009 73.9773 109.657 73.8453C109.319 73.6987 108.967 73.6253 108.601 73.6253C108.219 73.6253 107.86 73.6987 107.523 73.8453C107.185 73.9773 106.885 74.1753 106.621 74.4393C106.357 74.7033 106.144 75.026 105.983 75.4073C105.836 75.7887 105.763 76.2213 105.763 76.7053C105.763 77.1893 105.836 77.622 105.983 78.0033C106.144 78.3847 106.357 78.7073 106.621 78.9713C106.885 79.2353 107.185 79.4407 107.523 79.5873C107.86 79.7193 108.219 79.7853 108.601 79.7853ZM121.174 66.1673C121.585 66.1673 121.966 66.204 122.318 66.2773C122.67 66.3507 122.985 66.446 123.264 66.5633L122.45 69.1373C122.303 69.064 122.142 69.0053 121.966 68.9613C121.805 68.9173 121.599 68.8953 121.35 68.8953C120.925 68.8953 120.587 69.0347 120.338 69.3133C120.089 69.5773 119.964 69.9513 119.964 70.4353V71.3153H122.648V73.7793H119.964V82.0953H117.082V73.7793H115.146V71.3153H117.082V70.2593C117.082 69.5993 117.177 69.02 117.368 68.5213C117.573 68.008 117.859 67.5827 118.226 67.2453C118.593 66.8933 119.025 66.6293 119.524 66.4533C120.023 66.2627 120.573 66.1673 121.174 66.1673ZM127.579 66.3433H130.791L134.047 75.8253L134.619 77.8493H134.795L135.411 75.8253L138.799 66.3433H142.011L136.269 82.0953H133.145L127.579 66.3433ZM149.049 80.9513H148.873C148.535 81.362 148.125 81.714 147.641 82.0073C147.171 82.3007 146.563 82.4473 145.815 82.4473C145.257 82.4473 144.729 82.352 144.231 82.1613C143.747 81.9853 143.321 81.736 142.955 81.4133C142.588 81.0907 142.302 80.702 142.097 80.2473C141.891 79.7927 141.789 79.294 141.789 78.7513C141.789 78.194 141.899 77.6953 142.119 77.2553C142.339 76.8007 142.647 76.412 143.043 76.0893C143.439 75.7667 143.901 75.5247 144.429 75.3633C144.971 75.1873 145.558 75.0993 146.189 75.0993C146.893 75.0993 147.472 75.158 147.927 75.2753C148.381 75.378 148.755 75.488 149.049 75.6053V75.2753C149.049 74.7033 148.821 74.234 148.367 73.8673C147.912 73.486 147.347 73.2953 146.673 73.2953C145.675 73.2953 144.832 73.7133 144.143 74.5493L142.053 73.1193C143.197 71.682 144.759 70.9633 146.739 70.9633C148.411 70.9633 149.687 71.3593 150.567 72.1513C151.447 72.9287 151.887 74.0873 151.887 75.6273V82.0953H149.049V80.9513ZM149.049 77.7173C148.711 77.556 148.359 77.4313 147.993 77.3433C147.641 77.2407 147.252 77.1893 146.827 77.1893C146.137 77.1893 145.602 77.3433 145.221 77.6513C144.854 77.9447 144.671 78.3113 144.671 78.7513C144.671 79.1913 144.847 79.5433 145.199 79.8073C145.565 80.0713 145.983 80.2033 146.453 80.2033C146.834 80.2033 147.186 80.1373 147.509 80.0053C147.831 79.8587 148.103 79.6753 148.323 79.4553C148.557 79.2207 148.733 78.9567 148.851 78.6633C148.983 78.3553 149.049 78.04 149.049 77.7173ZM154.178 82.0953V66.3433H157.06V82.0953H154.178ZM166.986 80.6873H166.81C166.472 81.23 166.018 81.6627 165.446 81.9853C164.874 82.2933 164.221 82.4473 163.488 82.4473C162.124 82.4473 161.104 82.0293 160.43 81.1933C159.77 80.3573 159.44 79.2427 159.44 77.8493V71.3153H162.322V77.4973C162.322 78.2747 162.49 78.854 162.828 79.2353C163.18 79.602 163.686 79.7853 164.346 79.7853C164.742 79.7853 165.086 79.7047 165.38 79.5433C165.688 79.3673 165.944 79.14 166.15 78.8613C166.37 78.568 166.531 78.2307 166.634 77.8493C166.751 77.4533 166.81 77.0353 166.81 76.5953V71.3153H169.692V82.0953H166.986V80.6873ZM182.261 79.4993C181.762 80.3793 181.088 81.0907 180.237 81.6333C179.401 82.176 178.374 82.4473 177.157 82.4473C176.336 82.4473 175.573 82.308 174.869 82.0293C174.18 81.736 173.578 81.3327 173.065 80.8193C172.552 80.306 172.148 79.7047 171.855 79.0153C171.576 78.3113 171.437 77.5413 171.437 76.7053C171.437 75.928 171.576 75.1947 171.855 74.5053C172.134 73.8013 172.522 73.1927 173.021 72.6793C173.52 72.1513 174.106 71.7333 174.781 71.4253C175.47 71.1173 176.226 70.9633 177.047 70.9633C177.912 70.9633 178.682 71.11 179.357 71.4033C180.032 71.682 180.596 72.078 181.051 72.5913C181.506 73.09 181.85 73.684 182.085 74.3733C182.32 75.0627 182.437 75.8107 182.437 76.6173C182.437 76.72 182.437 76.808 182.437 76.8813C182.422 76.9693 182.415 77.05 182.415 77.1233C182.4 77.1967 182.393 77.2773 182.393 77.3653H174.275C174.334 77.8053 174.451 78.1867 174.627 78.5093C174.818 78.8173 175.045 79.0813 175.309 79.3013C175.588 79.5067 175.888 79.6607 176.211 79.7633C176.534 79.8513 176.864 79.8953 177.201 79.8953C177.861 79.8953 178.404 79.7487 178.829 79.4553C179.269 79.1473 179.614 78.766 179.863 78.3113L182.261 79.4993ZM179.643 75.3193C179.628 75.1287 179.562 74.916 179.445 74.6813C179.342 74.4467 179.181 74.2267 178.961 74.0213C178.756 73.816 178.492 73.6473 178.169 73.5153C177.861 73.3833 177.487 73.3173 177.047 73.3173C176.431 73.3173 175.888 73.4933 175.419 73.8453C174.95 74.1973 174.62 74.6887 174.429 75.3193H179.643Z" fill="white"/>
</svg>
